<svg width="189" height="63" viewBox="0 0 189 63" fill="none" xmlns="http://www.w3.org/2000/svg">
<g clip-path="url(#clip0_11029_32583)">
<path d="M13.2852 61.5866C12.8059 61.5866 12.3381 61.5805 11.8626 61.5698C10.8775 61.5569 9.89462 61.4712 8.92215 61.3132C8.01537 61.157 7.13694 60.8665 6.31584 60.4512C5.50227 60.0394 4.76023 59.4994 4.11814 58.852C3.46676 58.2121 2.92446 57.47 2.51272 56.6551C2.09645 55.8348 1.80836 54.9556 1.6585 54.048C1.49666 53.0729 1.4091 52.0868 1.39657 51.0984C1.38659 50.7666 1.37354 49.6619 1.37354 49.6619V13.3211C1.37354 13.3211 1.38744 12.2334 1.39664 11.9139C1.40864 10.927 1.49569 9.9425 1.65705 8.96883C1.80719 8.05879 2.0955 7.17704 2.512 6.35409C2.92222 5.53969 3.46151 4.79703 4.10897 4.1549C4.7557 3.50667 5.50011 2.9639 6.31507 2.54639C7.13428 2.13247 8.01105 1.84402 8.916 1.69069C9.89167 1.53112 10.8779 1.44485 11.8665 1.4326L13.286 1.41339H174.957L176.393 1.43337C177.373 1.44501 178.35 1.53051 179.317 1.68915C180.231 1.8444 181.117 2.13486 181.945 2.551C183.578 3.3924 184.907 4.72357 185.745 6.35793C186.154 7.1752 186.438 8.04976 186.587 8.95194C186.75 9.93359 186.841 10.9259 186.86 11.9208C186.865 12.3663 186.865 12.8449 186.865 13.3211C186.877 13.9111 186.877 14.4726 186.877 15.0387V47.9628C186.877 48.5343 186.877 49.092 186.865 49.6542C186.865 50.1658 186.865 50.6344 186.858 51.1168C186.84 52.094 186.75 53.0685 186.59 54.0326C186.443 54.9467 186.156 55.8328 185.74 56.6598C185.325 57.4659 184.786 58.2016 184.142 58.8397C183.5 59.4907 182.756 60.0338 181.941 60.4483C181.115 60.8667 180.23 61.1583 179.317 61.3132C178.344 61.472 177.362 61.5578 176.376 61.5698C175.916 61.5805 175.433 61.5866 174.965 61.5866L173.259 61.5897L13.2852 61.5866Z" fill="black"/>
<path d="M38.9655 31.973C38.9824 30.66 39.3312 29.3725 39.9794 28.2305C40.6275 27.0885 41.5541 26.1289 42.6727 25.4412C41.9621 24.4263 41.0246 23.591 39.9346 23.0018C38.8447 22.4125 37.6324 22.0856 36.394 22.0468C33.7523 21.7695 31.1913 23.6276 29.8451 23.6276C28.4729 23.6276 26.4003 22.0744 24.1684 22.1203C22.7247 22.1669 21.3178 22.5867 20.0846 23.3388C18.8515 24.0908 17.8341 25.1495 17.1318 26.4116C14.0893 31.6792 16.3587 39.4208 19.2732 43.6787C20.7313 45.7637 22.4355 48.0927 24.6654 48.0101C26.8474 47.9196 27.6624 46.6187 30.2963 46.6187C32.9058 46.6187 33.6704 48.0101 35.9455 47.9576C38.287 47.9196 39.7622 45.8633 41.1692 43.7586C42.2169 42.273 43.0231 40.631 43.5579 38.8936C42.1976 38.3183 41.0367 37.3552 40.2201 36.1245C39.4034 34.8939 38.9671 33.45 38.9655 31.973Z" fill="white"/>
<path d="M34.6681 19.2465C35.9448 17.7139 36.5737 15.7441 36.4214 13.7552C34.471 13.9601 32.6693 14.8923 31.3754 16.366C30.7428 17.086 30.2583 17.9236 29.9495 18.831C29.6408 19.7383 29.5139 20.6976 29.5762 21.654C30.5518 21.6641 31.5169 21.4526 32.3989 21.0356C33.2809 20.6186 34.0568 20.0069 34.6681 19.2465Z" fill="white"/>
<path d="M66.5485 42.7318H59.1021L57.3139 48.012H54.1599L61.213 28.4765H64.4899L71.543 48.012H68.3352L66.5485 42.7318ZM59.8733 40.2952H65.7758L62.8661 31.7258H62.7847L59.8733 40.2952Z" fill="white"/>
<path d="M86.7751 40.8913C86.7751 45.3173 84.4061 48.161 80.8312 48.161C79.9256 48.2083 79.025 47.9997 78.2324 47.559C77.4399 47.1183 76.7874 46.4634 76.3498 45.6691H76.2822V52.7237H73.3586V33.7691H76.1885V36.138H76.2423C76.7 35.3475 77.3635 34.696 78.162 34.2526C78.9606 33.8092 79.8645 33.5906 80.7774 33.62C84.3922 33.62 86.7751 36.4775 86.7751 40.8913ZM83.7701 40.8913C83.7701 38.0077 82.2799 36.1119 80.0062 36.1119C77.7724 36.1119 76.2699 38.0476 76.2699 40.8913C76.2699 43.7611 77.7724 45.683 80.0062 45.683C82.2799 45.683 83.7701 43.801 83.7701 40.8913Z" fill="white"/>
<path d="M102.451 40.8913C102.451 45.3173 100.082 48.161 96.5074 48.161C95.6019 48.2083 94.7012 47.9997 93.9087 47.559C93.1161 47.1183 92.4637 46.4633 92.0261 45.6691H91.9585V52.7237H89.0349V33.769H91.8647V36.138H91.9185C92.3762 35.3475 93.0397 34.696 93.8383 34.2526C94.6368 33.8092 95.5407 33.5906 96.4536 33.62C100.069 33.62 102.451 36.4775 102.451 40.8913ZM99.4464 40.8913C99.4464 38.0077 97.9562 36.1119 95.6825 36.1119C93.4487 36.1119 91.9462 38.0476 91.9462 40.8913C91.9462 43.761 93.4487 45.6829 95.6825 45.6829C97.9562 45.6829 99.4464 43.801 99.4464 40.8913H99.4464Z" fill="white"/>
<path d="M112.812 42.5689C113.029 44.5062 114.911 45.7781 117.482 45.7781C119.947 45.7781 121.719 44.5061 121.719 42.7593C121.719 41.243 120.65 40.3351 118.118 39.7129L115.587 39.103C111.999 38.2365 110.334 36.5589 110.334 33.8366C110.334 30.466 113.271 28.1508 117.442 28.1508C121.57 28.1508 124.4 30.466 124.496 33.8366H121.544C121.368 31.887 119.756 30.7102 117.401 30.7102C115.046 30.7102 113.434 31.9009 113.434 33.6338C113.434 35.0149 114.464 35.8276 116.982 36.4497L119.134 36.9782C123.142 37.9261 124.807 39.5362 124.807 42.3936C124.807 46.0485 121.896 48.3375 117.266 48.3375C112.933 48.3375 110.008 46.1022 109.819 42.5688L112.812 42.5689Z" fill="white"/>
<path d="M131.117 30.3985V33.7691H133.825V36.0843H131.117V43.9362C131.117 45.156 131.659 45.7244 132.85 45.7244C133.171 45.7188 133.492 45.6963 133.812 45.6568V47.9582C133.276 48.0582 132.732 48.1035 132.188 48.0934C129.304 48.0934 128.18 47.0103 128.18 44.248V36.0843H126.109V33.7691H128.18V30.3985H131.117Z" fill="white"/>
<path d="M135.394 40.8913C135.394 36.4099 138.033 33.5939 142.149 33.5939C146.279 33.5939 148.906 36.4099 148.906 40.8913C148.906 45.3849 146.292 48.1886 142.149 48.1886C138.007 48.1886 135.394 45.3849 135.394 40.8913ZM145.927 40.8913C145.927 37.8172 144.518 36.0028 142.149 36.0028C139.78 36.0028 138.373 37.831 138.373 40.8913C138.373 43.9777 139.78 45.7782 142.149 45.7782C144.518 45.7782 145.927 43.9777 145.927 40.8913H145.927Z" fill="white"/>
<path d="M151.316 33.7691H154.104V36.1933H154.172C154.361 35.4362 154.804 34.7671 155.428 34.2984C156.052 33.8298 156.818 33.5903 157.598 33.62C157.935 33.6189 158.271 33.6554 158.6 33.7291V36.4637C158.174 36.3337 157.73 36.2741 157.286 36.287C156.861 36.2698 156.438 36.3447 156.045 36.5065C155.652 36.6684 155.298 36.9134 155.009 37.2247C154.719 37.536 154.501 37.9063 154.368 38.3101C154.235 38.7138 154.191 39.1416 154.239 39.5639V48.012H151.316L151.316 33.7691Z" fill="white"/>
<path d="M172.079 43.8287C171.686 46.4142 169.168 48.1886 165.946 48.1886C161.803 48.1886 159.231 45.4126 159.231 40.9589C159.231 36.4914 161.817 33.5939 165.823 33.5939C169.764 33.5939 172.242 36.3009 172.242 40.6194V41.621H162.182V41.7977C162.136 42.3219 162.201 42.8499 162.375 43.3468C162.548 43.8437 162.825 44.298 163.187 44.6795C163.55 45.0611 163.989 45.3612 164.477 45.5599C164.964 45.7586 165.488 45.8513 166.014 45.832C166.705 45.8967 167.398 45.7367 167.99 45.3757C168.583 45.0148 169.043 44.4722 169.303 43.8286L172.079 43.8287ZM162.196 39.5778H169.317C169.343 39.1064 169.271 38.6348 169.107 38.1924C168.942 37.75 168.688 37.3465 168.36 37.007C168.032 36.6676 167.637 36.3996 167.201 36.2199C166.764 36.0403 166.295 35.9527 165.823 35.9629C165.347 35.96 164.875 36.0515 164.435 36.232C163.994 36.4125 163.594 36.6785 163.256 37.0146C162.919 37.3507 162.652 37.7502 162.47 38.1901C162.288 38.6301 162.195 39.1017 162.196 39.5778V39.5778Z" fill="white"/>
<path d="M59.5065 13.7721C60.1195 13.7281 60.7345 13.8207 61.3073 14.0432C61.8801 14.2657 62.3964 14.6125 62.8189 15.0587C63.2415 15.5049 63.5597 16.0393 63.7507 16.6234C63.9417 17.2075 64.0006 17.8266 63.9234 18.4363C63.9234 21.4351 62.3026 23.1589 59.5065 23.1589H56.116V13.7721H59.5065ZM57.5739 21.8314H59.3437C59.7817 21.8576 60.22 21.7857 60.6267 21.6212C61.0334 21.4566 61.3983 21.2034 61.6948 20.88C61.9914 20.5566 62.2121 20.1712 62.3408 19.7518C62.4696 19.3323 62.5033 18.8895 62.4393 18.4554C62.4986 18.023 62.4616 17.5829 62.3308 17.1665C62.2001 16.7502 61.9788 16.3679 61.683 16.0471C61.3871 15.7263 61.024 15.4749 60.6195 15.3109C60.2151 15.1469 59.7794 15.0744 59.3437 15.0986H57.5739V21.8314Z" fill="white"/>
<path d="M65.5702 19.6137C65.5257 19.1482 65.579 18.6785 65.7266 18.2348C65.8742 17.7911 66.113 17.3831 66.4275 17.037C66.742 16.6909 67.1254 16.4144 67.5531 16.2252C67.9808 16.036 68.4432 15.9383 68.9109 15.9383C69.3785 15.9383 69.841 16.036 70.2687 16.2252C70.6964 16.4144 71.0798 16.6909 71.3943 17.037C71.7088 17.3831 71.9476 17.7911 72.0952 18.2348C72.2428 18.6785 72.2961 19.1482 72.2515 19.6137C72.2969 20.0798 72.2443 20.5501 72.0971 20.9946C71.9498 21.439 71.7112 21.8477 71.3966 22.1945C71.082 22.5412 70.6983 22.8183 70.2702 23.0079C69.8421 23.1976 69.3791 23.2955 68.9109 23.2955C68.4427 23.2955 67.9797 23.1976 67.5516 23.0079C67.1235 22.8183 66.7398 22.5412 66.4252 22.1945C66.1106 21.8477 65.872 21.439 65.7247 20.9946C65.5775 20.5501 65.5249 20.0798 65.5702 19.6137ZM70.8136 19.6137C70.8136 18.0782 70.1238 17.1803 68.9132 17.1803C67.698 17.1803 67.0144 18.0782 67.0144 19.6138C67.0144 21.1616 67.698 22.0526 68.9132 22.0526C70.1238 22.0526 70.8136 21.1554 70.8136 19.6137H70.8136Z" fill="white"/>
<path d="M81.1327 23.1587H79.6824L78.2183 17.9415H78.1077L76.6498 23.1587H75.2134L73.2607 16.0749H74.6787L75.9477 21.4803H76.0522L77.5086 16.0749H78.8498L80.3061 21.4803H80.4168L81.6796 16.0749H83.0776L81.1327 23.1587Z" fill="white"/>
<path d="M84.72 16.0749H86.0658V17.2003H86.1702C86.3475 16.7961 86.6464 16.4573 87.0253 16.231C87.4042 16.0048 87.8443 15.9024 88.2842 15.9382C88.6288 15.9123 88.9749 15.9642 89.2968 16.0902C89.6187 16.2162 89.908 16.4131 90.1435 16.6661C90.379 16.9191 90.5545 17.2219 90.6571 17.552C90.7597 17.8821 90.7867 18.231 90.7361 18.5729V23.1587H89.338V18.924C89.338 17.7856 88.8434 17.2195 87.8094 17.2195C87.5754 17.2086 87.3418 17.2484 87.1246 17.3362C86.9074 17.424 86.7118 17.5578 86.5512 17.7283C86.3905 17.8988 86.2686 18.102 86.1938 18.3241C86.1191 18.5461 86.0932 18.7816 86.118 19.0146V23.1587H84.72L84.72 16.0749Z" fill="white"/>
<path d="M92.9636 13.3096H94.3616V23.1587H92.9636V13.3096Z" fill="white"/>
<path d="M96.3051 19.6138C96.2606 19.1482 96.3139 18.6785 96.4615 18.2347C96.6092 17.791 96.848 17.383 97.1625 17.0369C97.4771 16.6908 97.8605 16.4143 98.2882 16.2251C98.7159 16.0359 99.1784 15.9381 99.6461 15.9381C100.114 15.9381 100.576 16.0359 101.004 16.2251C101.432 16.4143 101.815 16.6908 102.13 17.0369C102.444 17.383 102.683 17.791 102.831 18.2347C102.978 18.6785 103.032 19.1482 102.987 19.6138C103.032 20.0798 102.98 20.5501 102.833 20.9946C102.685 21.439 102.447 21.8478 102.132 22.1945C101.817 22.5412 101.434 22.8183 101.005 23.0079C100.577 23.1975 100.114 23.2955 99.6461 23.2955C99.1779 23.2955 98.7148 23.1975 98.2867 23.0079C97.8586 22.8183 97.4749 22.5412 97.1603 22.1945C96.8456 21.8478 96.607 21.439 96.4597 20.9946C96.3124 20.5501 96.2597 20.0798 96.3051 19.6138ZM101.548 19.6138C101.548 18.0782 100.859 17.1803 99.648 17.1803C98.4328 17.1803 97.7492 18.0782 97.7492 19.6138C97.7492 21.1616 98.4329 22.0526 99.648 22.0526C100.859 22.0526 101.548 21.1554 101.548 19.6138H101.548Z" fill="white"/>
<path d="M104.459 21.1554C104.459 19.8803 105.408 19.1452 107.094 19.0407L109.013 18.9301V18.3187C109.013 17.5705 108.518 17.1481 107.562 17.1481C106.782 17.1481 106.241 17.4346 106.086 17.9354H104.732C104.875 16.7187 106.02 15.9382 107.627 15.9382C109.403 15.9382 110.404 16.8223 110.404 18.3187V23.1588H109.059V22.1633H108.948C108.723 22.5204 108.408 22.8115 108.034 23.0069C107.661 23.2023 107.242 23.295 106.82 23.2755C106.523 23.3064 106.222 23.2747 105.938 23.1823C105.654 23.09 105.392 22.9391 105.169 22.7394C104.947 22.5396 104.769 22.2955 104.646 22.0227C104.524 21.7498 104.46 21.4544 104.459 21.1554ZM109.013 20.5501V19.9579L107.283 20.0685C106.307 20.1338 105.865 20.4656 105.865 21.0901C105.865 21.7277 106.418 22.0987 107.178 22.0987C107.401 22.1213 107.626 22.0988 107.84 22.0326C108.054 21.9663 108.253 21.8578 108.424 21.7133C108.595 21.5688 108.735 21.3914 108.836 21.1915C108.937 20.9917 108.997 20.7736 109.013 20.5501Z" fill="white"/>
<path d="M112.242 19.6138C112.242 17.3754 113.392 15.9574 115.182 15.9574C115.625 15.937 116.064 16.043 116.449 16.2631C116.834 16.4832 117.148 16.8082 117.354 17.2002H117.459V13.3096H118.857V23.1587H117.517V22.0395H117.407C117.184 22.4289 116.859 22.7498 116.467 22.9677C116.075 23.1856 115.63 23.292 115.182 23.2755C113.38 23.2755 112.242 21.8575 112.242 19.6138ZM113.686 19.6138C113.686 21.1163 114.394 22.0204 115.579 22.0204C116.757 22.0204 117.485 21.1032 117.485 19.6199C117.485 18.1435 116.749 17.2133 115.579 17.2133C114.402 17.2133 113.686 18.1236 113.686 19.6138H113.686Z" fill="white"/>
<path d="M124.641 19.6137C124.597 19.1482 124.65 18.6785 124.797 18.2348C124.945 17.7911 125.184 17.3831 125.498 17.037C125.813 16.6909 126.196 16.4144 126.624 16.2252C127.052 16.036 127.514 15.9383 127.982 15.9383C128.449 15.9383 128.912 16.036 129.339 16.2252C129.767 16.4144 130.151 16.6909 130.465 17.037C130.78 17.3831 131.018 17.7911 131.166 18.2348C131.314 18.6785 131.367 19.1482 131.322 19.6137C131.368 20.0798 131.315 20.5501 131.168 20.9946C131.021 21.439 130.782 21.8477 130.467 22.1945C130.153 22.5412 129.769 22.8183 129.341 23.0079C128.913 23.1976 128.45 23.2955 127.982 23.2955C127.513 23.2955 127.05 23.1976 126.622 23.0079C126.194 22.8183 125.811 22.5412 125.496 22.1945C125.181 21.8477 124.943 21.439 124.796 20.9946C124.648 20.5501 124.596 20.0798 124.641 19.6137ZM129.884 19.6137C129.884 18.0782 129.195 17.1803 127.984 17.1803C126.769 17.1803 126.085 18.0782 126.085 19.6138C126.085 21.1616 126.769 22.0526 127.984 22.0526C129.195 22.0526 129.884 21.1554 129.884 19.6137Z" fill="white"/>
<path d="M133.198 16.0749H134.544V17.2003H134.649C134.826 16.7961 135.125 16.4573 135.504 16.231C135.882 16.0048 136.323 15.9024 136.762 15.9382C137.107 15.9123 137.453 15.9642 137.775 16.0902C138.097 16.2162 138.386 16.4131 138.622 16.6661C138.857 16.9191 139.033 17.2219 139.135 17.552C139.238 17.8821 139.265 18.231 139.214 18.5729V23.1587H137.816V18.924C137.816 17.7856 137.322 17.2195 136.288 17.2195C136.054 17.2086 135.82 17.2484 135.603 17.3362C135.386 17.424 135.19 17.5578 135.029 17.7283C134.869 17.8988 134.747 18.102 134.672 18.3241C134.597 18.5461 134.571 18.7816 134.596 19.0146V23.1587H133.198V16.0749Z" fill="white"/>
<path d="M147.114 14.3112V16.1072H148.649V17.2847H147.114V20.9273C147.114 21.6693 147.42 21.9942 148.116 21.9942C148.294 21.9936 148.472 21.9829 148.649 21.9619V23.1264C148.398 23.1714 148.143 23.1953 147.888 23.1979C146.334 23.1979 145.714 22.651 145.714 21.2852V17.2847H144.59V16.1071H145.714V14.3112H147.114Z" fill="white"/>
<path d="M150.558 13.3096H151.944V17.2133H152.054C152.24 16.8054 152.547 16.4646 152.934 16.2375C153.32 16.0105 153.768 15.9081 154.214 15.9443C154.557 15.9257 154.9 15.9829 155.218 16.112C155.536 16.2411 155.822 16.4388 156.055 16.691C156.288 16.9432 156.463 17.2438 156.566 17.5712C156.67 17.8986 156.7 18.2449 156.654 18.5852V23.1587H155.255V18.9301C155.255 17.7986 154.728 17.2256 153.74 17.2256C153.5 17.2059 153.258 17.2389 153.032 17.3224C152.805 17.4058 152.6 17.5377 152.43 17.7088C152.26 17.8798 152.13 18.0859 152.048 18.3127C151.966 18.5394 151.935 18.7813 151.956 19.0215V23.1587H150.558L150.558 13.3096Z" fill="white"/>
<path d="M164.806 21.2461C164.616 21.8935 164.204 22.4535 163.643 22.8281C163.082 23.2028 162.407 23.3682 161.736 23.2955C161.269 23.3078 160.806 23.2184 160.377 23.0335C159.948 22.8486 159.565 22.5726 159.254 22.2248C158.942 21.8769 158.71 21.4654 158.574 21.0189C158.438 20.5724 158.4 20.1016 158.464 19.6391C158.402 19.1752 158.44 18.7034 158.576 18.2555C158.712 17.8077 158.943 17.3943 159.252 17.0434C159.562 16.6925 159.944 16.4122 160.371 16.2215C160.798 16.0308 161.262 15.9342 161.73 15.9382C163.701 15.9382 164.89 17.2848 164.89 19.5093V19.9971H159.888V20.0754C159.866 20.3354 159.899 20.597 159.984 20.8436C160.069 21.0902 160.205 21.3163 160.382 21.5074C160.56 21.6984 160.776 21.8503 161.015 21.9532C161.255 22.056 161.514 22.1077 161.774 22.1048C162.109 22.1449 162.448 22.0847 162.748 21.9318C163.048 21.7789 163.296 21.5402 163.46 21.246L164.806 21.2461ZM159.888 18.9631H163.466C163.484 18.7254 163.451 18.4866 163.371 18.2621C163.291 18.0376 163.165 17.8323 163 17.6595C162.836 17.4866 162.638 17.3501 162.418 17.2586C162.197 17.167 161.961 17.1226 161.722 17.1281C161.48 17.125 161.24 17.1704 161.016 17.2616C160.793 17.3527 160.589 17.4878 160.418 17.6588C160.247 17.8298 160.112 18.0334 160.021 18.2574C159.93 18.4814 159.885 18.7214 159.888 18.9631H159.888Z" fill="white"/>
</g>
<defs>
<clipPath id="clip0_11029_32583">
<rect width="188.25" height="62.9262" fill="white" transform="translate(0 0.0368652)"/>
</clipPath>
</defs>
</svg>
