<svg width="73" height="72" viewBox="0 0 73 72" fill="none" xmlns="http://www.w3.org/2000/svg">
<g clip-path="url(#clip0_11029_32883)">
<path d="M55.3346 10.7234V65.6756C55.3346 69.1327 52.5099 72 49.0102 72L27.7603 71.9578H6.67896C3.17937 71.9578 0.354492 69.1328 0.354492 65.6334V10.6812C0.354492 7.2238 3.17923 4.39893 6.67896 4.39893H49.0103C52.5099 4.39907 55.3346 7.22394 55.3346 10.7234Z" fill="#CAE8F9"/>
<path d="M55.3343 10.7234V65.6755C55.3343 69.1327 52.5096 72 49.0099 72L27.76 71.9578V4.39905H49.0099C52.5096 4.39905 55.3343 7.22392 55.3343 10.7234Z" fill="#B7E0F6"/>
<path d="M46.3965 23.3304C46.3965 24.5108 45.4269 25.4385 44.2884 25.4385H10.8955C9.71478 25.4385 8.78735 24.5108 8.78735 23.3304C8.78735 22.1497 9.71478 21.2223 10.8955 21.2223H44.2884C45.4268 21.2223 46.3965 22.1497 46.3965 23.3304Z" fill="#17ACE8"/>
<path d="M49.4323 31.763C49.4323 32.9434 48.5046 33.8711 47.3242 33.8711H10.8955C9.71478 33.8711 8.78735 32.9434 8.78735 31.763C8.78735 30.5823 9.71478 29.6549 10.8955 29.6549H47.3241C48.5046 29.6548 49.4323 30.5823 49.4323 31.763Z" fill="#17ACE8"/>
<path d="M40.9999 40.1956C40.9999 41.376 40.0722 42.3037 38.8918 42.3037H10.8955C9.71478 42.3037 8.78735 41.376 8.78735 40.1956C8.78735 39.0149 9.71478 38.0875 10.8955 38.0875H38.8915C40.0721 38.0873 40.9999 39.0147 40.9999 40.1956Z" fill="#17ACE8"/>
<path d="M33.1575 48.628C33.1575 49.8084 32.1876 50.7361 31.0494 50.7361H10.8955C9.71478 50.7361 8.78735 49.8084 8.78735 48.628C8.78735 47.4473 9.71478 46.5199 10.8955 46.5199H31.0494C32.1876 46.5199 33.1575 47.4473 33.1575 48.628Z" fill="#17ACE8"/>
<path d="M10.8955 12.7894C9.73024 12.7894 8.78735 11.8465 8.78735 10.6813V2.10811C8.78735 0.942891 9.73024 0 10.8955 0C12.0607 0 13.0036 0.942891 13.0036 2.10811V10.6812C13.0036 11.8465 12.0607 12.7894 10.8955 12.7894Z" fill="#0A4EAF"/>
<path d="M19.3281 12.7894C18.1629 12.7894 17.22 11.8465 17.22 10.6813V2.10811C17.22 0.942891 18.1629 0 19.3281 0C20.4933 0 21.4362 0.942891 21.4362 2.10811V10.6812C21.4362 11.8465 20.4933 12.7894 19.3281 12.7894Z" fill="#0A4EAF"/>
<path d="M29.8688 2.10811V10.6812C29.8688 11.8616 28.9414 12.7893 27.7607 12.7893C26.58 12.7893 25.6526 11.8616 25.6526 10.6812V2.10811C25.6524 0.927422 26.58 0 27.7607 0C28.9414 0 29.8688 0.927422 29.8688 2.10811Z" fill="#0A4EAF"/>
<path d="M36.1933 12.7894C35.0281 12.7894 34.0852 11.8465 34.0852 10.6813V2.10811C34.0851 0.942891 35.028 0 36.1933 0C37.3585 0 38.3014 0.942891 38.3014 2.10811V10.6812C38.3014 11.8465 37.3585 12.7894 36.1933 12.7894Z" fill="#0A4EAF"/>
<path d="M44.6257 12.7894C43.4605 12.7894 42.5176 11.8465 42.5176 10.6813V2.10811C42.5176 0.942891 43.4605 0 44.6257 0C45.7909 0 46.7338 0.942891 46.7338 2.10811V10.6812C46.7339 11.8465 45.791 12.7894 44.6257 12.7894Z" fill="#0A4EAF"/>
<path d="M29.8682 57.0603C29.8682 58.2408 28.9408 59.1685 27.7601 59.1685H10.895C9.71429 59.1685 8.78687 58.2408 8.78687 57.0603C8.78687 55.8797 9.71429 54.9522 10.895 54.9522H27.7601C28.9408 54.9522 29.8682 55.8797 29.8682 57.0603Z" fill="#17ACE8"/>
<path d="M29.8681 57.0603C29.8681 58.2408 28.9407 59.1685 27.76 59.1685V54.9522C28.9407 54.9522 29.8681 55.8797 29.8681 57.0603Z" fill="black"/>
<path d="M33.1562 48.628C33.1562 49.8084 32.1863 50.7361 31.0481 50.7361H27.7593V46.5199H31.0481C32.1863 46.5199 33.1562 47.4473 33.1562 48.628Z" fill="#1689FC"/>
<path d="M40.9987 40.1956C40.9987 41.376 40.071 42.3037 38.8906 42.3037H27.7595V38.0875H38.8906C40.0708 38.0873 40.9987 39.0147 40.9987 40.1956Z" fill="#1689FC"/>
<path d="M44.2871 25.4386H27.7593V21.2224H44.2871C45.4256 21.2224 46.3952 22.1498 46.3952 23.3305C46.3952 24.5109 45.4254 25.4386 44.2871 25.4386Z" fill="#1689FC"/>
<path d="M49.4311 31.763C49.4311 32.9434 48.5034 33.8711 47.323 33.8711H27.7595V29.6549H47.323C48.5034 29.6548 49.4311 30.5823 49.4311 31.763Z" fill="#1689FC"/>
<path d="M72.312 24.5528C72.312 26.7876 71.469 28.8957 69.8667 30.4978L66.1563 34.2079L58.9463 32.9853L55.4467 29.4858L54.2241 22.3182L57.9345 18.5658C61.0967 15.4036 66.6623 15.4036 69.8667 18.5658C71.4691 20.1679 72.312 22.276 72.312 24.5528Z" fill="#FD4E26"/>
<path d="M72.3123 24.5528C72.3123 26.7876 71.4692 28.8957 69.867 30.4978L66.1566 34.2079L58.9466 32.9853L57.218 31.2568L69.8668 18.5658C71.4694 20.1679 72.3123 22.276 72.3123 24.5528Z" fill="#FD3018"/>
<path d="M66.1568 34.2079L41.5337 58.831L36.0525 59.5056L32.511 55.9218L28.9692 52.3803L29.6018 46.899L51.231 25.2695L54.2246 22.3182L60.1698 28.263L66.1568 34.2079Z" fill="#FEA832"/>
<path d="M66.1565 34.2079L41.5334 58.8311L36.0522 59.5057L32.5107 55.9218L60.1696 28.263L66.1565 34.2079Z" fill="#FE9923"/>
<path d="M41.5334 58.831C41.2804 59.0418 41.0274 59.2525 40.6902 59.337C39.9736 59.59 27.8306 63.6377 27.2824 63.8062C26.5658 64.0592 25.7224 63.8484 25.1324 63.3002C24.5843 62.7521 24.3732 61.9087 24.6262 61.1499C24.7949 60.6018 28.8424 48.4589 29.0954 47.7422C29.2219 47.4047 29.3906 47.1518 29.6016 46.899L35.5886 52.8862L41.5334 58.831Z" fill="#FEDBAB"/>
<path d="M35.5885 52.8863L41.5333 58.831C41.2803 59.0418 41.0273 59.2525 40.6901 59.337C39.9735 59.59 27.8305 63.6377 27.2823 63.8062C26.5657 64.0592 25.7222 63.8484 25.1323 63.3002L35.5885 52.8863Z" fill="#FEC478"/>
</g>
<defs>
<clipPath id="clip0_11029_32883">
<rect width="72" height="72" fill="white" transform="translate(0.333252)"/>
</clipPath>
</defs>
</svg>
