<svg width="73" height="72" viewBox="0 0 73 72" fill="none" xmlns="http://www.w3.org/2000/svg">
<path d="M62.2083 42.75L59.326 65.8125C59.189 66.9 58.6597 67.9002 57.8376 68.6251C57.0155 69.3501 55.957 69.7501 54.8609 69.75H17.8056C16.7095 69.7501 15.651 69.3501 14.8289 68.6251C14.0068 67.9002 13.4775 66.9 13.3405 65.8125L10.4583 42.75" fill="#D5883E"/>
<path d="M13.3405 65.8125C13.4775 66.9 14.0068 67.9002 14.8289 68.6251C15.651 69.3501 16.7095 69.7501 17.8056 69.75H54.8609C55.72 69.7488 56.5605 69.5 57.2819 69.0334V46.125H10.8801L13.3405 65.8125Z" fill="#F3A748"/>
<path d="M62.2083 36H10.4583C8.59429 36 7.08325 37.511 7.08325 39.375C7.08325 41.239 8.59429 42.75 10.4583 42.75H62.2083C64.0722 42.75 65.5833 41.239 65.5833 39.375C65.5833 37.511 64.0722 36 62.2083 36Z" fill="#F0AE42"/>
<path d="M7.29025 38.25C7.15692 38.6103 7.08689 38.9909 7.08325 39.375C7.08325 40.2701 7.43883 41.1285 8.07177 41.7615C8.7047 42.3944 9.56315 42.75 10.4583 42.75H62.2083V38.25H7.29025Z" fill="#F9D266"/>
<path d="M44.3871 6.16275L43.0833 2.25L40.8333 4.5L36.3333 2.25L38.6102 7.94137C40.2668 7.73957 41.9469 8.00005 43.4646 8.694C43.6225 7.80299 43.9346 6.94638 44.3871 6.16275Z" fill="#559B2D"/>
<path d="M43.4646 8.69406C42.0933 8.0642 40.5855 7.78929 39.0801 7.89461C37.5747 7.99994 36.1199 8.48211 34.8496 9.29679C33.5793 10.1115 32.5343 11.2325 31.8106 12.5567C31.0869 13.881 30.7079 15.366 30.7083 16.8751C32.2867 17.927 33.4131 19.5328 33.865 21.3751H34.0833C35.557 21.3742 36.9717 21.9543 38.0208 22.9894C39.0698 21.9543 40.4845 21.3742 41.9583 21.3751L43.396 9.15756C43.414 9.00118 43.4365 8.84706 43.4646 8.69406Z" fill="#B52F28"/>
<path d="M54.3333 30.375C54.345 29.504 54.1516 28.6424 53.7686 27.86C53.3856 27.0776 52.8239 26.3963 52.1288 25.8712C51.4338 25.3461 50.6249 24.992 49.7676 24.8375C48.9103 24.683 48.0287 24.7324 47.194 24.9817C46.7882 23.9217 46.0706 23.0096 45.1359 22.3657C44.2012 21.7218 43.0933 21.3764 41.9583 21.375L43.396 9.1575C43.6198 7.25462 44.5343 5.5001 45.966 4.22682C47.3977 2.95354 49.247 2.25011 51.163 2.25C52.3453 2.25002 53.5121 2.51808 54.5759 3.034C55.6396 3.54993 56.5726 4.30031 57.3045 5.22871C58.0365 6.15712 58.5485 7.23939 58.802 8.39415C59.0555 9.54892 59.0438 10.7461 58.768 11.8958L54.3333 30.375Z" fill="#C18E59"/>
<path d="M33.7278 36H59.9583C59.9583 34.5082 59.3657 33.0774 58.3108 32.0225C57.2559 30.9676 55.8251 30.375 54.3333 30.375C54.345 29.504 54.1516 28.6424 53.7686 27.86C53.3857 27.0776 52.8239 26.3963 52.1289 25.8712C51.4338 25.3461 50.6249 24.992 49.7676 24.8375C48.9103 24.683 48.0287 24.7324 47.194 24.9818C46.8617 24.1112 46.3176 23.3372 45.6109 22.7298C44.9042 22.1224 44.0572 21.7007 43.1466 21.5029C42.236 21.3051 41.2904 21.3375 40.3955 21.597C39.5005 21.8565 38.6843 22.3351 38.0208 22.9894C36.9718 21.9542 35.5571 21.3742 34.0833 21.375H33.7278V36Z" fill="#559B2D"/>
<path d="M27.3333 9V10.5683C27.3332 11.8161 27.6412 13.0446 28.2299 14.1448C28.8187 15.245 29.67 16.1828 30.7083 16.875C31.7465 17.5672 32.5978 18.505 33.1866 19.6052C33.7753 20.7054 34.0833 21.9339 34.0833 23.1818V32.625C34.0383 32.625 33.9921 32.625 33.9471 32.625C33.6337 32.6249 33.3234 32.6865 33.0339 32.8064C32.7443 32.9263 32.4812 33.102 32.2596 33.3236L29.5833 36H11.5833V23.1818C11.5832 21.9339 11.8912 20.7054 12.4799 19.6052C13.0687 18.505 13.92 17.5672 14.9583 16.875C15.9965 16.1828 16.8478 15.245 17.4366 14.1448C18.0253 13.0446 18.3333 11.8161 18.3333 10.5683V9H27.3333Z" fill="#C8CDED"/>
<path d="M25.0833 47.25C25.68 47.25 26.2523 47.4871 26.6742 47.909C27.0962 48.331 27.3333 48.9033 27.3333 49.5V63C27.3333 63.5967 27.0962 64.169 26.6742 64.591C26.2523 65.0129 25.68 65.25 25.0833 65.25C24.4865 65.25 23.9142 65.0129 23.4923 64.591C23.0703 64.169 22.8333 63.5967 22.8333 63V49.5L25.0833 47.25Z" fill="#F2F2F2"/>
<path d="M47.5833 47.25C46.9865 47.25 46.4142 47.4871 45.9923 47.909C45.5703 48.331 45.3333 48.9033 45.3333 49.5V63C45.3333 63.5967 45.5703 64.169 45.9923 64.591C46.4142 65.0129 46.9865 65.25 47.5833 65.25C48.18 65.25 48.7523 65.0129 49.1742 64.591C49.5962 64.169 49.8333 63.5967 49.8333 63V49.5L47.5833 47.25Z" fill="#F2F2F2"/>
<path d="M35.6346 36.6986L11.1569 61.1764C10.9353 61.398 10.6722 61.5737 10.3827 61.6936C10.0931 61.8135 9.78276 61.8751 9.46938 61.875C8.83663 61.8747 8.22988 61.6232 7.78246 61.1758C7.33504 60.7284 7.08355 60.1216 7.08325 59.4889C7.08312 59.1755 7.14476 58.8652 7.26463 58.5756C7.38451 58.286 7.56027 58.023 7.78188 57.8014L32.2596 33.3236C32.4812 33.102 32.7443 32.9263 33.0339 32.8064C33.3234 32.6865 33.6337 32.6249 33.9471 32.625C34.5799 32.6253 35.1866 32.8768 35.634 33.3242C36.0815 33.7716 36.333 34.3784 36.3333 35.0111C36.3334 35.3245 36.2717 35.6348 36.1519 35.9244C36.032 36.2139 35.8562 36.477 35.6346 36.6986Z" fill="#FCE797"/>
<path d="M37.0319 36.6986L61.5096 61.1764C61.7312 61.398 61.9943 61.5737 62.2839 61.6936C62.5734 61.8135 62.8837 61.8751 63.1971 61.875C63.8299 61.8747 64.4366 61.6232 64.884 61.1758C65.3315 60.7284 65.583 60.1216 65.5833 59.4889C65.5834 59.1755 65.5217 58.8652 65.4019 58.5756C65.282 58.286 65.1062 58.023 64.8846 57.8014L40.4069 33.3236C40.1853 33.102 39.9222 32.9263 39.6327 32.8064C39.3431 32.6865 39.0328 32.6249 38.7194 32.625C38.0866 32.6253 37.4799 32.8768 37.0325 33.3242C36.585 33.7716 36.3336 34.3784 36.3333 35.0111C36.3331 35.3245 36.3948 35.6348 36.5146 35.9244C36.6345 36.2139 36.8103 36.477 37.0319 36.6986Z" fill="#FCE797"/>
<path d="M38.5833 49.5C38.5833 48.2574 37.5759 47.25 36.3333 47.25C35.0906 47.25 34.0833 48.2574 34.0833 49.5V63C34.0833 64.2426 35.0906 65.25 36.3333 65.25C37.5759 65.25 38.5833 64.2426 38.5833 63V49.5Z" fill="#F2F2F2"/>
<path d="M27.3333 2.25H18.3333C17.0906 2.25 16.0833 3.25736 16.0833 4.5V6.75C16.0833 7.99264 17.0906 9 18.3333 9H27.3333C28.5759 9 29.5833 7.99264 29.5833 6.75V4.5C29.5833 3.25736 28.5759 2.25 27.3333 2.25Z" fill="#3B5892"/>
<path d="M16.0833 36V24.75H29.5833V36" fill="#E2E7F6"/>
<path d="M16.0833 28.125H26.2083V36H16.0833V28.125Z" fill="#F2F2F2"/>
<path d="M47.376 11.2514L47.745 9.03287L54.4925 10.1552L54.1235 12.3737L47.376 11.2514Z" fill="#976947"/>
<path d="M46.2495 16.8742L46.6185 14.6557L53.3661 15.778L52.9971 17.9965L46.2495 16.8742Z" fill="#976947"/>
<path d="M30.7083 16.875C32.2867 17.927 33.4131 19.5327 33.865 21.375H34.0833C35.557 21.3742 36.9717 21.9542 38.0208 22.9894C38.6792 22.3555 39.4825 21.8921 40.3608 21.6394V10.6875H33.1833C31.5933 12.355 30.7069 14.571 30.7083 16.875Z" fill="#D23F34"/>
</svg>
