<svg width="72" height="72" viewBox="0 0 72 72" fill="none" xmlns="http://www.w3.org/2000/svg">
<g clip-path="url(#clip0_11029_32590)">
<path d="M26.2065 20.6067L31.7611 30.4251L45.0952 30.6248V28.1751L35.8955 26.572L32.4108 16.8267C32.4108 16.8267 30.5771 13.4911 27.1571 16.1545C24.9268 17.8842 26.2065 20.6067 26.2065 20.6067Z" fill="#5088E2"/>
<path d="M45.0955 28.1808H46.077L47.7476 27.3455C48.0908 27.1739 48.4958 27.1964 48.8164 27.4074C49.4548 27.8292 50.4533 28.597 50.6023 29.348C50.8217 30.4674 49.393 30.5939 49.393 30.5939L48.0964 30.3661L47.3342 30.7036H45.0983V28.1808H45.0955Z" fill="#E6B68E"/>
<path d="M33.9778 14.5847C33.9778 14.5847 32.355 16.4719 32.9625 17.8078C33.6796 19.3884 29.1459 17.0822 29.2134 14.5847C29.2134 14.5847 30.3778 13.1194 30.2456 11.5528C30.1134 9.98625 33.9778 14.5847 33.9778 14.5847Z" fill="#E6B68E"/>
<path d="M36.5766 8.92032C36.5766 8.92032 38.3091 15.6169 35.311 15.6506C32.3129 15.6844 29.9785 12.0197 29.9785 12.0197C29.9785 12.0197 32.8163 8.00344 36.5766 8.92032Z" fill="#F1CAAB"/>
<path d="M28.5631 11.0921C28.5856 11.4689 28.6081 11.8571 28.4928 12.2199C28.3634 12.6277 28.054 12.9764 27.6631 13.1536C27.7756 13.7077 28.1553 14.1774 28.6418 14.4614C28.8246 14.5655 29.0187 14.6527 29.224 14.6949C29.6093 14.7708 30.0228 14.6836 30.3462 14.4643C30.6725 14.2449 30.9059 13.8961 30.9987 13.5164C31.1056 13.0749 31.0268 12.5996 30.8075 12.203C30.5881 11.8064 30.2365 11.4886 29.8315 11.2833C29.449 11.078 28.999 11.0752 28.5631 11.0921Z" fill="#262935"/>
<path d="M34.6413 30.5092C32.6079 31.367 30.5407 32.1685 28.4623 32.9279C27.0223 33.4567 25.571 33.9657 24.1226 34.4551C22.9188 30.8017 23.2816 26.8276 23.8498 23.0223C24.0832 21.4698 24.3532 19.892 25.0366 18.4773C25.7173 17.057 26.9069 15.7492 28.4088 15.2795C28.5607 14.7451 28.8898 14.4582 29.3145 14.2529C29.7138 14.0589 30.1948 14.2051 30.4395 14.5764C30.4873 14.6495 30.5379 14.7254 30.5885 14.7985C31.4323 16.022 32.816 17.4592 33.5276 17.3157C33.6513 17.4395 33.1816 18.1679 33.6682 19.0145C34.7735 20.9551 34.4782 28.2873 34.6413 30.5092Z" fill="#5E8EEF"/>
<path d="M61.1156 48.0426L59.9821 43.4976L59.8331 43.4695C58.4212 43.2051 57.2568 42.2123 56.7731 40.8623C55.6396 37.6926 53.6653 32.1914 53.6653 32.1914H49.4128L53.1196 44.2401C55.0153 50.3995 52.6162 56.6348 46.1728 56.6348H37.5581C31.9978 56.6348 33.4574 48.8301 34.6865 44.5101C34.8103 44.0798 35.2068 43.7873 35.654 43.7873C36.2249 43.7873 36.7424 43.5567 37.1137 43.1826C37.4878 42.8086 37.7212 42.2911 37.7212 41.7201H24.1509L21.6196 46.7461L24.7415 55.4226L25.0481 56.2692C25.1324 56.5054 25.2365 56.7304 25.3659 56.9414C26.0943 58.2014 27.4471 59.0058 28.9434 59.0058H45.8831C51.8962 59.0058 56.6156 54.7814 57.8362 49.4798L61.1156 48.0426Z" fill="#F55A4F"/>
<path d="M53.7699 35.1155L49.3121 32.2664L48.6511 30.4721L48.758 30.4271C49.7283 30.008 50.5974 29.3049 51.2049 28.4499L51.2808 28.3458L51.3821 28.4246C52.1442 29.0236 52.7574 29.7999 53.1624 30.6689L53.1652 30.6717L53.7952 32.1596L53.7699 35.1155ZM49.5146 32.1061L53.528 34.6711L53.5449 32.2102L52.9346 30.7702C52.5661 29.9742 52.0121 29.2599 51.3258 28.6974C50.7211 29.5102 49.8886 30.1796 48.9605 30.6042L49.5146 32.1061Z" fill="#F55A4F"/>
<path d="M21.6086 66.4838C25.9833 64.6705 28.0596 59.6542 26.2463 55.2795C24.433 50.9049 19.4167 48.8285 15.0421 50.6418C10.6674 52.4551 8.59106 57.4714 10.4044 61.8461C12.2177 66.2207 17.234 68.2971 21.6086 66.4838Z" fill="#262935"/>
<path d="M23.0125 63.2737C25.6174 60.6688 25.6174 56.4454 23.0125 53.8405C20.4076 51.2356 16.1843 51.2356 13.5794 53.8405C10.9745 56.4454 10.9745 60.6688 13.5794 63.2737C16.1843 65.8785 20.4076 65.8785 23.0125 63.2737Z" fill="#2B2F3A"/>
<path d="M21.8187 62.0781C23.7636 60.1332 23.7636 56.9799 21.8187 55.035C19.8738 53.0901 16.7206 53.0901 14.7757 55.035C12.8308 56.9799 12.8308 60.1332 14.7757 62.0781C16.7206 64.0229 19.8738 64.0229 21.8187 62.0781Z" fill="#C6C6C6"/>
<path d="M20.4744 58.9057C20.6695 57.7022 19.852 56.5684 18.6486 56.3733C17.4451 56.1782 16.3113 56.9957 16.1162 58.1992C15.9211 59.4027 16.7386 60.5365 17.9421 60.7316C19.1455 60.9267 20.2793 60.1092 20.4744 58.9057Z" fill="#D7D6E9"/>
<path d="M28.524 55.4161H9.90529C8.92936 55.4161 8.13623 56.2092 8.13623 57.1852C8.13623 58.1611 8.92936 58.9542 9.90529 58.9542H28.524V55.4161Z" fill="#666666"/>
<path d="M28.4847 56.7361H6.10566C5.69504 56.7361 5.36035 57.0708 5.36035 57.4814C5.36035 57.8921 5.69504 58.2267 6.10566 58.2267H28.4847C28.8954 58.2267 29.23 57.8921 29.23 57.4814C29.23 57.0708 28.8982 56.7361 28.4847 56.7361Z" fill="#373A47"/>
<path d="M59.9817 43.4948C59.9817 43.4948 60.9211 43.5932 61.5229 45.5957C62.2626 48.0567 60.8648 48.8076 60.8648 48.8076L59.9817 43.4948Z" fill="#F0B11B"/>
<path d="M71.4121 60.5648C72.501 55.9582 69.6493 51.341 65.0427 50.2521C60.4361 49.1631 55.8189 52.0148 54.73 56.6214C53.641 61.2281 56.4927 65.8452 61.0993 66.9342C65.706 68.0231 70.3231 65.1714 71.4121 60.5648Z" fill="#262935"/>
<path d="M69.5625 60.1271C70.41 56.5422 68.1908 52.949 64.6058 52.1016C61.0209 51.2542 57.4277 53.4734 56.5803 57.0584C55.7329 60.6433 57.9521 64.2365 61.537 65.0839C65.122 65.9313 68.7151 63.7121 69.5625 60.1271Z" fill="#2B2F3A"/>
<path d="M67.9171 59.7379C68.5498 57.0612 66.8929 54.3785 64.2163 53.7458C61.5397 53.1131 58.8569 54.77 58.2242 57.4466C57.5915 60.1233 59.2484 62.806 61.9251 63.4387C64.6017 64.0714 67.2844 62.4145 67.9171 59.7379Z" fill="#C6C6C6"/>
<path d="M65.2202 59.1002C65.5007 57.9138 64.7662 56.7246 63.5798 56.4442C62.3934 56.1637 61.2043 56.8982 60.9238 58.0846C60.6434 59.271 61.3778 60.4601 62.5642 60.7406C63.7506 61.021 64.9398 60.2866 65.2202 59.1002Z" fill="#D7D6E9"/>
<path d="M14.4629 39.565H19.517V44.619H14.4629V39.565Z" fill="#868CA5"/>
<path d="M14.4629 39.565H19.517V40.5887H14.4629V39.565Z" fill="#6F7793"/>
<path d="M13.5966 46.572L5.19849 43.6077V40.9358H5.93536V43.0874L13.8413 45.8802L13.5966 46.572Z" fill="#666666"/>
<path d="M10.6872 46.2249C9.36532 46.2249 8.09126 46.748 7.18001 47.7043C6.7047 48.2021 6.22657 48.8124 5.87501 49.5127C5.55439 50.154 6.04095 50.9077 6.75814 50.9077H8.96032L13.5109 46.2221H10.6872V46.2249Z" fill="#F71C55"/>
<path d="M11.4752 46.2249C10.6539 46.2249 9.84955 46.4724 9.18018 46.9477C8.31955 47.5608 7.14955 48.5396 6.33955 49.7743C6.02174 50.2608 6.36768 50.9077 6.94986 50.9077H9.30674L14.8642 46.2221H11.4752V46.2249Z" fill="#F0B11B"/>
<path d="M4.87305 55.4165H33.7209C33.7209 55.4165 34.3087 43.1821 23.5255 41.8208C13.7409 40.5862 5.45242 50.6099 4.87305 55.4165Z" fill="#D73C30"/>
<path d="M4.87305 55.4169H30.3262C30.3262 55.4169 30.3262 43.6212 21.4724 42.935C13.4005 42.3078 5.1543 51.004 4.87305 55.4169Z" fill="#F55A4F"/>
<path d="M0.140625 37.5182C0.140625 38.6489 1.08844 39.5657 2.25563 39.5657H20.9194C22.0866 39.5657 23.0344 38.6489 23.0344 37.5182H0.140625Z" fill="#C6C6C6"/>
<path d="M3.45557 39.565V41.5619C3.45557 41.9725 3.78744 42.3044 4.19807 42.3044H6.52682C6.93744 42.3044 7.26932 41.9725 7.26932 41.5619V39.565H3.45557Z" fill="#868CA5"/>
<path d="M3.45557 39.565H7.2665V40.5915H3.45557V39.565Z" fill="#6F7793"/>
<path d="M35.8924 38.0633H24.8618C23.8521 38.0633 23.0337 38.8817 23.0337 39.8914C23.0337 40.9011 23.8521 41.7195 24.8618 41.7195H37.7206V39.8914C37.7206 38.8817 36.9021 38.0633 35.8924 38.0633Z" fill="#4C4F5E"/>
<path d="M33.7257 55.4196L25.3641 56.9412C25.2376 56.7303 25.1307 56.5053 25.0463 56.269L24.7397 55.4225H33.7257V55.4196Z" fill="#F55A4F"/>
<path d="M14.3144 49.6371H22.24C22.6816 49.6371 23.0388 49.2799 23.0388 48.8383C23.0388 48.3967 22.6816 48.0396 22.24 48.0396H14.3144C13.8728 48.0396 13.5156 48.3967 13.5156 48.8383C13.5156 49.2799 13.8728 49.6371 14.3144 49.6371Z" fill="#D73C30"/>
<path d="M22.2372 51.1811H14.3144C13.8728 51.1811 13.5156 51.5383 13.5156 51.9798C13.5156 52.4214 13.8728 52.7786 14.3144 52.7786H22.24C22.6816 52.7786 23.0388 52.4214 23.0388 51.9798C23.0388 51.5383 22.6787 51.1811 22.2372 51.1811Z" fill="#D73C30"/>
<path d="M56.3994 57.4898C60.2188 56.0385 59.465 54.2132 63.0707 53.5804C66.3022 53.0123 69.4185 53.8813 71.8597 51.6257C69.8094 49.0298 66.6369 47.362 63.0707 47.362C57.1363 47.362 52.2819 51.9801 51.8994 57.8188C53.061 58.0917 54.6191 58.1676 56.3994 57.4898Z" fill="#EA4642"/>
<path d="M57.2056 41.7169C57.2056 41.7169 58.4374 45.7894 57.2056 48.5682C57.2056 48.5682 59.3712 46.5798 57.2056 41.7169Z" fill="#D73C30"/>
<path d="M18.3716 18.0242H5.0741C2.9366 18.0242 1.2041 19.7567 1.2041 21.8942V37.5176H22.2388V21.8942C22.2416 19.7567 20.5091 18.0242 18.3716 18.0242Z" fill="#F55A4F"/>
<path d="M21.5571 18.0242H1.8865C1.2565 18.0242 0.744629 18.5361 0.744629 19.1661V21.807H22.6962V19.1661C22.699 18.5361 22.1871 18.0242 21.5571 18.0242Z" fill="#F55A4F"/>
<path d="M1.2041 21.8103H22.2388V23.1462H1.2041V21.8103Z" fill="#D73C30"/>
<path d="M39.6978 53.2484V56.5391H47.8428V56.2634C47.8428 55.7431 47.4884 55.2931 46.999 55.2059C45.8909 55.0063 44.0121 54.4916 43.4018 53.2456H39.6978V53.2484Z" fill="#004496"/>
<path d="M34.0513 30.4695C34.0513 30.4695 43.1975 31.3161 45.7288 33.8783C48.26 36.4405 43.4478 53.3717 43.4478 53.3717H40.5144L41.2991 35.3239L34.0513 30.4695Z" fill="#737A93"/>
<path d="M41.654 53.2457C41.6427 53.2907 41.6315 53.3301 41.6202 53.3695C41.5246 53.707 41.4712 53.8926 41.4712 53.8926H37.7671C37.7671 53.8926 38.684 40.8707 39.4659 38.6657C39.6037 38.2692 32.8705 38.182 29.0258 38.182C25.1812 38.182 23.9802 34.3036 23.9802 34.3036L24.059 34.267L28.5083 32.2111L28.6855 32.1323L33.329 29.9892C33.5258 30.1636 33.7705 30.3239 34.049 30.4701C37.0358 32.0395 44.3455 32.1801 45.3215 34.3514C46.2693 36.4523 42.5343 50.0986 41.654 53.2457Z" fill="#868CA5"/>
<path d="M37.7681 53.8946V57.1853H45.9131V56.9096C45.9131 56.3893 45.5587 55.9393 45.0693 55.8521C43.9612 55.6524 42.0824 55.1378 41.4721 53.8918H37.7681V53.8946Z" fill="#005C98"/>
<path d="M54.1691 27.0669V32.8551C53.7022 32.9647 53.2072 33.0266 52.6869 33.0266C50.195 33.0266 48.1729 31.6541 48.1729 29.9638C48.1729 29.7951 48.1897 29.6319 48.2319 29.4716C48.5779 28.0091 50.4454 26.8954 52.6897 26.8954C53.21 26.8982 53.705 26.9601 54.1691 27.0669Z" fill="#D73C30"/>
<path d="M54.1693 27.0669V31.8735C53.7024 31.9832 53.2074 32.0451 52.6871 32.0451C50.4427 32.0451 48.5752 30.9313 48.2292 29.4716C48.5752 28.0091 50.4427 26.8954 52.6871 26.8954C53.2102 26.8982 53.7052 26.9601 54.1693 27.0669Z" fill="#F55A4F"/>
<path d="M54.1509 27.1089V32.8182C55.1437 32.3711 55.8496 31.2629 55.8496 29.9636C55.8496 28.6642 55.1437 27.5561 54.1509 27.1089Z" fill="#F2F2F3"/>
<path d="M52.9365 26.9036V33.0208C53.3668 33.0039 53.7803 32.9477 54.1684 32.8549V27.0695C53.7803 26.9767 53.3668 26.9205 52.9365 26.9036Z" fill="#D7D6E9"/>
<path d="M52.9365 32.0447V33.0234C53.3668 33.0065 53.7803 32.9503 54.1684 32.8575V32.0447H52.9365Z" fill="#C6C6C6"/>
<path d="M34.6333 9.67359H38.0392C37.8986 6.99328 35.688 4.8614 32.9711 4.8614C30.1642 4.8614 27.8889 7.13672 27.8889 9.94359C27.8889 12.2189 30.2767 14.0639 33.1764 13.9739C33.1792 13.9711 33.182 13.9683 33.1849 13.9655V11.1248C33.182 10.3233 33.8317 9.67359 34.6333 9.67359Z" fill="#F55A4F"/>
<path d="M32.3146 9.09742C32.3146 9.66835 31.8506 10.1324 31.2796 10.1324C30.7087 10.1324 30.2446 9.66835 30.2446 9.09742C30.2446 8.52648 30.7087 8.06242 31.2796 8.06242C31.8506 8.06242 32.3146 8.52648 32.3146 9.09742Z" fill="#D73C30"/>
<path d="M44.248 29.3838H45.2296L46.9002 28.5485C47.2434 28.3769 47.6484 28.3994 47.969 28.6104C48.6074 29.0322 49.6059 29.8 49.7549 30.551C49.9743 31.6704 48.5455 31.7969 48.5455 31.7969L47.249 31.5691L46.4868 31.9066H44.2509V29.3838H44.248Z" fill="#F1CAAB"/>
<path d="M47.9169 32.0471C48.4295 32.0471 48.845 31.6315 48.845 31.119C48.845 30.6064 48.4295 30.1908 47.9169 30.1908C47.4043 30.1908 46.9888 30.6064 46.9888 31.119C46.9888 31.6315 47.4043 32.0471 47.9169 32.0471Z" fill="#373A47"/>
<g opacity="0.4">
<path d="M25.5767 18.6263C25.5767 18.6263 24.6514 18.1229 25.242 21.4979C25.737 24.3273 29.1317 30.1604 30.2201 31.9773C30.4254 32.3232 30.7967 32.5313 31.2017 32.5313H42.0242L36.267 31.3051L31.5982 25.891L25.5767 18.6263Z" fill="#6792FA"/>
</g>
<path d="M32.3868 17.7036C31.8299 17.7627 31.349 17.5264 30.8259 17.3239C29.6137 16.8627 28.2243 16.8824 27.0234 17.3858C26.669 17.5349 26.3287 17.7233 26.0418 17.9792C25.4877 18.4714 25.1643 19.1661 24.9309 19.8664C24.2531 21.9111 24.2531 24.1133 24.2615 26.2677C24.2643 27.4489 24.2784 28.6695 24.7706 29.7383C25.4231 31.1502 26.9277 32.1205 28.4831 32.1317H28.6912L24.0618 34.2664C22.9312 30.6636 23.294 26.7627 23.8509 23.0249C24.0843 21.4724 24.3543 19.8945 25.0377 18.4799C25.7184 17.0595 26.9081 15.7517 28.4099 15.282C28.5618 14.7477 28.8909 14.4608 29.3156 14.2555C29.7149 14.0614 30.1959 14.2077 30.4406 14.5789C30.4884 14.652 30.539 14.728 30.5896 14.8011C30.5531 14.7927 30.5137 14.7842 30.4771 14.7758C30.2381 14.7167 29.9596 14.6661 29.7628 14.8152C29.6053 14.9305 29.5518 15.1499 29.5799 15.3439C29.6081 15.538 29.7121 15.7124 29.8246 15.8727C30.4293 16.7558 31.3546 17.4195 32.3868 17.7036Z" fill="#4A82DD"/>
<path d="M25.3612 21.8103L30.7584 31.3503C30.8569 31.5218 31.0369 31.6315 31.2366 31.6343L44.25 31.8284V29.3787L35.0503 27.7756L31.5656 18.0303C31.5656 18.0303 29.7319 14.6946 26.3119 17.3581C24.0816 19.0878 25.3612 21.8103 25.3612 21.8103Z" fill="#6792FA"/>
<g opacity="0.2">
<path d="M40.9692 53.8946H37.7686C37.7686 53.8946 38.6854 40.8727 39.4673 38.6677C39.6051 38.2711 32.872 38.1839 29.0273 38.1839C25.1826 38.1839 23.9817 34.3055 23.9817 34.3055L24.0604 34.2689L28.5098 32.213C28.3636 32.4464 28.2454 32.6939 28.1639 32.9555C27.9867 33.5377 28.0289 34.2183 28.4029 34.6992C28.6251 34.9833 28.9373 35.1802 29.2608 35.3349C30.6445 36.0014 32.242 36.0183 33.7748 36.0211C36.3511 36.0324 38.9301 36.038 41.5064 36.0464C40.6373 36.8536 40.1423 37.9449 39.7964 39.0811C39.4533 40.2174 39.3239 41.4014 39.2283 42.5855C39.1186 43.9467 39.0567 45.308 39.0342 46.6692C39.0201 47.8871 38.9104 49.1021 38.902 50.3227C38.8992 50.8711 38.8936 51.4336 39.0848 51.9483C39.4054 52.8146 40.1817 53.3967 40.9692 53.8946Z" fill="#868CA5"/>
</g>
<path d="M32.7431 13.1906C32.7431 13.1906 33.3984 15.2437 34.8384 15.7162L33.4631 15.4912C33.4631 15.4912 32.099 14.8331 31.8149 13.1934H32.7431V13.1906Z" fill="#F0B11B"/>
</g>
<defs>
<clipPath id="clip0_11029_32590">
<rect width="72" height="72" fill="white"/>
</clipPath>
</defs>
</svg>
