<svg width="213" height="63" viewBox="0 0 213 63" fill="none" xmlns="http://www.w3.org/2000/svg">
<g clip-path="url(#clip0_11029_32584)">
<path fill-rule="evenodd" clip-rule="evenodd" d="M205.131 62.9631H8.4927C4.15594 62.9631 0.624023 59.4166 0.624023 55.0973V7.90264C0.624023 3.56764 4.15594 0.0368652 8.4927 0.0368652H205.131C209.464 0.0368652 213 3.56764 213 7.90264V55.0973C213 59.4166 209.464 62.9631 205.131 62.9631Z" fill="black"/>
<path d="M112.504 20.8527C111.086 20.8527 109.89 20.3544 108.945 19.3737C108.007 18.4204 107.484 17.1061 107.507 15.7644C107.507 14.3325 107.992 13.1203 108.945 12.1591C109.887 11.1783 111.082 10.6801 112.5 10.6801C113.903 10.6801 115.098 11.1783 116.06 12.1591C117.013 13.1517 117.497 14.3639 117.497 15.7644C117.482 17.2003 116.997 18.4125 116.06 19.3697C115.118 20.3584 113.922 20.8527 112.504 20.8527ZM70.3051 20.8527C68.9181 20.8527 67.7148 20.3623 66.7302 19.3933C65.7535 18.4282 65.2573 17.2081 65.2573 15.7684C65.2573 14.3286 65.7535 13.1085 66.7302 12.1434C67.6953 11.1744 68.8986 10.684 70.3051 10.684C70.9927 10.684 71.6608 10.8213 72.3016 11.0999C72.9306 11.3706 73.4424 11.7393 73.8214 12.1905L73.9152 12.3043L72.8564 13.3478L72.747 13.2183C72.1492 12.5043 71.3483 12.1552 70.2895 12.1552C69.344 12.1552 68.5196 12.4926 67.8398 13.1595C67.1561 13.8303 66.8084 14.7091 66.8084 15.7723C66.8084 16.8354 67.1561 17.7142 67.8398 18.385C68.5196 19.052 69.344 19.3894 70.2895 19.3894C71.2975 19.3894 72.1453 19.052 72.8056 18.385C73.1963 17.9927 73.4385 17.4435 73.5245 16.7491H70.1293V15.2819H74.9818L75.0013 15.4153C75.0364 15.6624 75.0716 15.9174 75.0716 16.1528C75.0716 17.5063 74.6653 18.6008 73.8605 19.409C72.9462 20.3662 71.7507 20.8527 70.3051 20.8527ZM126.413 20.6447H124.917L120.334 13.2811L120.373 14.6071V20.6408H118.876V10.892H120.584L120.631 10.9665L124.94 17.9025L124.901 16.5804V10.892H126.413V20.6447ZM101.26 20.6447H99.7441V12.3592H97.1147V10.892H103.885V12.3592H101.256V20.6447H101.26ZM95.8801 20.6447H94.3681V10.892H95.8801V20.6447ZM87.3825 20.6447H85.8705V12.3592H83.2411V10.892H90.0118V12.3592H87.3825V20.6447ZM82.2839 20.6291H76.4859V10.892H82.2839V12.3592H78.0018V15.0347H81.8658V16.4863H78.0018V19.1618H82.2839V20.6291ZM110.055 18.3654C110.73 19.0441 111.551 19.3854 112.504 19.3854C113.485 19.3854 114.286 19.052 114.954 18.3654C115.618 17.6985 115.954 16.8237 115.954 15.7684C115.954 14.713 115.618 13.8343 114.958 13.1713C114.282 12.4926 113.458 12.1513 112.508 12.1513C111.527 12.1513 110.727 12.4847 110.062 13.1713C109.398 13.8382 109.062 14.713 109.062 15.7684C109.062 16.8237 109.394 17.7024 110.055 18.3654Z" fill="white"/>
<path fill-rule="evenodd" clip-rule="evenodd" d="M107.367 34.2618C103.675 34.2618 100.682 37.0746 100.682 40.9546C100.682 44.7992 103.694 47.6473 107.367 47.6473C111.059 47.6473 114.052 44.8149 114.052 40.9546C114.052 37.0746 111.059 34.2618 107.367 34.2618ZM107.367 44.9953C105.347 44.9953 103.608 43.3163 103.608 40.9389C103.608 38.5262 105.351 36.8824 107.367 36.8824C109.387 36.8824 111.125 38.5262 111.125 40.9389C111.129 43.332 109.387 44.9953 107.367 44.9953ZM92.7819 34.2618C89.0898 34.2618 86.097 37.0746 86.097 40.9546C86.097 44.7992 89.1093 47.6473 92.7819 47.6473C96.474 47.6473 99.4668 44.8149 99.4668 40.9546C99.4668 37.0746 96.4701 34.2618 92.7819 34.2618ZM92.7819 44.9953C90.762 44.9953 89.0234 43.3163 89.0234 40.9389C89.0234 38.5262 90.7659 36.8824 92.7819 36.8824C94.8018 36.8824 96.5404 38.5262 96.5404 40.9389C96.5404 43.332 94.8018 44.9953 92.7819 44.9953ZM75.427 36.3057V39.1382H82.1979C81.9908 40.727 81.4672 41.9 80.6663 42.7043C79.6739 43.7007 78.1424 44.7835 75.4427 44.7835C71.2817 44.7835 68.0272 41.4096 68.0272 37.2316C68.0272 33.0535 71.2817 29.6796 75.4427 29.6796C77.6892 29.6796 79.3262 30.5702 80.5413 31.7079L82.5417 29.6993C80.8539 28.0751 78.6073 26.8315 75.4583 26.8315C69.7502 26.8315 64.9602 31.4999 64.9602 37.2159C64.9602 42.9475 69.7463 47.6003 75.4583 47.6003C78.5409 47.6003 80.8539 46.5881 82.6823 44.6815C84.546 42.8102 85.1359 40.17 85.1359 38.0397C85.1359 37.3767 85.0851 36.7804 84.9796 36.2743H75.4231C75.427 36.2704 75.427 36.3057 75.427 36.3057ZM146.413 38.5105C145.854 37.008 144.167 34.2461 140.705 34.2461C137.275 34.2461 134.423 36.957 134.423 40.9389C134.423 44.6972 137.243 47.6317 141.037 47.6317C144.085 47.6317 145.858 45.7603 146.589 44.6619L144.327 43.1397C143.577 44.2578 142.534 44.9914 141.053 44.9914C139.556 44.9914 138.509 44.3088 137.814 42.9632L146.726 39.2559C146.726 39.2598 146.413 38.5105 146.413 38.5105ZM137.326 40.7466C137.255 38.1613 139.326 36.8471 140.807 36.8471C141.975 36.8471 142.948 37.4238 143.28 38.2633L137.326 40.7466ZM130.086 47.2315H133.012V27.569H130.086V47.2315ZM125.28 35.7486H125.175C124.514 34.9601 123.26 34.2461 121.658 34.2461C118.334 34.2461 115.271 37.1845 115.271 40.9585C115.271 44.7168 118.318 47.6199 121.658 47.6199C123.241 47.6199 124.514 46.902 125.175 46.0977H125.28V47.0589C125.28 49.6128 123.921 50.9898 121.729 50.9898C119.935 50.9898 118.822 49.6952 118.369 48.6124L115.825 49.6795C116.556 51.4449 118.506 53.63 121.725 53.63C125.155 53.63 128.062 51.6018 128.062 46.6548V34.6463H125.296V35.7486C125.3 35.7486 125.28 35.7486 125.28 35.7486ZM121.92 44.9953C119.9 44.9953 118.213 43.3006 118.213 40.9585C118.213 38.5968 119.9 36.8863 121.92 36.8863C123.921 36.8863 125.472 38.6164 125.472 40.9585C125.491 43.3006 123.925 44.9953 121.92 44.9953ZM160.115 27.569H153.118V47.2315H156.044V39.7855H160.119C163.358 39.7855 166.542 37.4277 166.542 33.6851C166.542 29.9425 163.37 27.569 160.115 27.569ZM160.201 37.0393H156.04V30.2916H160.201C162.393 30.2916 163.631 32.108 163.631 33.6655C163.631 35.2073 162.377 37.0393 160.201 37.0393ZM178.271 34.2265C176.145 34.2265 173.954 35.172 173.047 37.2316L175.641 38.3143C176.2 37.2316 177.224 36.8628 178.306 36.8628C179.822 36.8628 181.353 37.773 181.389 39.3971V39.605C180.865 39.3069 179.716 38.8518 178.341 38.8518C175.54 38.8518 172.699 40.3896 172.699 43.2731C172.699 45.9133 174.997 47.6081 177.556 47.6081C179.521 47.6081 180.603 46.7176 181.279 45.6858H181.385V47.208H184.206V39.6756C184.206 36.1684 181.611 34.2265 178.271 34.2265ZM177.904 44.9953C176.946 44.9953 175.606 44.5246 175.606 43.3163C175.606 41.7941 177.278 41.2174 178.704 41.2174C179.994 41.2174 180.603 41.496 181.369 41.8804C181.158 43.6458 179.673 44.9797 177.904 44.9953ZM194.497 34.6463L191.137 43.175H191.031L187.55 34.6463H184.401L189.625 46.5685L186.647 53.1946H189.695L197.732 34.6463H194.497ZM168.156 47.2315H171.082V27.569H168.156V47.2315Z" fill="white"/>
<path fill-rule="evenodd" clip-rule="evenodd" d="M16.9711 11.8885C16.5179 12.3788 16.2561 13.1281 16.2561 14.1089V48.8949C16.2561 49.8757 16.5179 50.625 16.9867 51.0957L17.1078 51.2016L36.5177 31.7118V31.2763L17.0922 11.7825L16.9711 11.8885Z" fill="url(#paint0_linear_11029_32584)"/>
<path fill-rule="evenodd" clip-rule="evenodd" d="M42.9756 38.2281L36.5017 31.7275V31.2725L42.9756 24.7719L43.1163 24.8582L50.774 29.2285C52.9658 30.4682 52.9658 32.5161 50.774 33.7715L43.1163 38.1418L42.9756 38.2281Z" fill="url(#paint1_linear_11029_32584)"/>
<path fill-rule="evenodd" clip-rule="evenodd" d="M43.1165 38.1417L36.502 31.5L16.9709 51.1115C17.6859 51.8804 18.8854 51.9667 20.2255 51.2174L43.1165 38.1417Z" fill="url(#paint2_linear_11029_32584)"/>
<path fill-rule="evenodd" clip-rule="evenodd" d="M43.1165 24.8582L20.2255 11.8022C18.8854 11.0333 17.682 11.1392 16.9709 11.9081L36.502 31.5L43.1165 24.8582Z" fill="url(#paint3_linear_11029_32584)"/>
<path opacity="0.2" fill-rule="evenodd" clip-rule="evenodd" d="M42.9757 38.0006L20.2409 50.9703C18.9711 51.7039 17.8381 51.6529 17.1074 50.986L16.9863 51.1076L17.1074 51.2135C17.8381 51.8765 18.9711 51.9314 20.2409 51.1978L43.132 38.1418L42.9757 38.0006Z" fill="black"/>
<path opacity="0.12" fill-rule="evenodd" clip-rule="evenodd" d="M50.7742 33.5439L42.9563 38.0005L43.0969 38.1417L50.7546 33.7714C51.8525 33.1437 52.3917 32.3199 52.3917 31.5C52.3252 32.2532 51.7666 32.9672 50.7742 33.5439Z" fill="black"/>
<path opacity="0.25" fill-rule="evenodd" clip-rule="evenodd" d="M20.2256 12.0298L50.7743 29.4561C51.7667 30.0171 52.3254 30.7507 52.4114 31.5C52.4114 30.6801 51.8722 29.8563 50.7743 29.2286L20.2256 11.8022C18.0338 10.5429 16.2561 11.5943 16.2561 14.109V14.3365C16.2561 11.8179 18.0338 10.7862 20.2256 12.0298Z" fill="white"/>
</g>
<defs>
<linearGradient id="paint0_linear_11029_32584" x1="34.7767" y1="13.7336" x2="3.66849" y2="21.9884" gradientUnits="userSpaceOnUse">
<stop stop-color="#00A0FF"/>
<stop offset="0.00657" stop-color="#00A1FF"/>
<stop offset="0.2601" stop-color="#00BEFF"/>
<stop offset="0.5122" stop-color="#00D2FF"/>
<stop offset="0.7604" stop-color="#00DFFF"/>
<stop offset="1" stop-color="#00E3FF"/>
</linearGradient>
<linearGradient id="paint1_linear_11029_32584" x1="53.6324" y1="31.5001" x2="15.7229" y2="31.5001" gradientUnits="userSpaceOnUse">
<stop stop-color="#FFE000"/>
<stop offset="0.4087" stop-color="#FFBD00"/>
<stop offset="0.7754" stop-color="#FFA500"/>
<stop offset="1" stop-color="#FF9C00"/>
</linearGradient>
<linearGradient id="paint2_linear_11029_32584" x1="39.5198" y1="35.114" x2="14.4079" y2="77.2061" gradientUnits="userSpaceOnUse">
<stop stop-color="#FF3A44"/>
<stop offset="1" stop-color="#C31162"/>
</linearGradient>
<linearGradient id="paint3_linear_11029_32584" x1="12.0528" y1="0.318162" x2="23.2563" y2="19.1172" gradientUnits="userSpaceOnUse">
<stop stop-color="#32A071"/>
<stop offset="0.0685" stop-color="#2DA771"/>
<stop offset="0.4762" stop-color="#15CF74"/>
<stop offset="0.8009" stop-color="#06E775"/>
<stop offset="1" stop-color="#00F076"/>
</linearGradient>
<clipPath id="clip0_11029_32584">
<rect width="212.376" height="62.9262" fill="white" transform="translate(0.624023 0.0368652)"/>
</clipPath>
</defs>
</svg>
