<svg width="72" height="72" viewBox="0 0 72 72" fill="none" xmlns="http://www.w3.org/2000/svg">
<path d="M28.0555 18.2024V38.0969C28.0555 39.6343 29.303 40.8818 30.8482 40.8818H39.8488V62.1752H6.28198V9.82556H39.8475V15.4174H30.8469C29.3017 15.4174 28.0555 16.665 28.0555 18.2024Z" fill="#E6FCFF"/>
<path d="M53.4906 18.2284V38.1048C53.4906 39.6357 52.2508 40.8832 50.7121 40.8832H47.7952C49.3339 40.8832 50.5736 39.637 50.5736 38.1048V18.2284C50.5736 16.6975 49.3339 15.45 47.7952 15.45H50.7121C52.2508 15.45 53.4906 16.6962 53.4906 18.2284Z" fill="#EBAE56"/>
<path d="M50.5732 18.2284V38.1048C50.5732 39.6357 49.3334 40.8832 47.7947 40.8832H30.843C29.3043 40.8832 28.0581 39.637 28.0581 38.1048V18.2284C28.0581 16.6975 29.3043 15.45 30.843 15.45H47.7947C49.3334 15.45 50.5732 16.6962 50.5732 18.2284Z" fill="#FBC56D"/>
<path d="M45.8482 15.45V26.2041C45.8482 26.9262 44.9734 27.2756 44.47 26.7657L43.6611 25.9414V15.45H45.8482Z" fill="#CF8327"/>
<path d="M43.661 15.45V25.9414L41.3497 23.5938C41.0365 23.2729 40.5189 23.2729 40.2044 23.5938L39.6868 24.1257L37.0843 26.7657C36.5809 27.2756 35.7061 26.9262 35.7061 26.2041V15.45H43.661Z" fill="#C1771E"/>
<path d="M37.6401 34.3924H31.7971C30.8459 34.3885 30.8421 32.9378 31.7971 32.9339H37.6401C38.5925 32.9378 38.5951 34.3885 37.6401 34.3924Z" fill="#EA6A95"/>
<path d="M40.7352 37.4853H31.7993C30.8481 37.4814 30.843 36.0307 31.7993 36.0268H40.7352C41.6851 36.0307 41.6903 37.4814 40.7352 37.4853Z" fill="#EA6A95"/>
<path d="M38.3671 33.663C38.3671 34.0642 38.0462 34.3916 37.6385 34.3916H31.7982C31.3168 34.3993 30.9467 33.8985 31.1058 33.4443C31.2003 33.7355 31.4772 33.9477 31.7982 33.9477H37.6385C37.9672 33.9477 38.2364 33.7367 38.3309 33.4443C38.3516 33.5103 38.3671 33.5905 38.3671 33.663Z" fill="#C1771E"/>
<path d="M41.4666 36.756C41.4666 37.1649 41.1379 37.4846 40.738 37.4846H31.7996C31.3194 37.4949 30.948 36.9967 31.1072 36.5373C31.2017 36.8284 31.4786 37.0407 31.7996 37.0407H40.738C41.059 37.0407 41.3359 36.8297 41.4304 36.5373C41.4524 36.6033 41.4666 36.6822 41.4666 36.756Z" fill="#C1771E"/>
<path d="M38.3315 33.4448C38.237 33.736 37.9666 33.9482 37.6392 33.9482H31.7988C31.4779 33.9482 31.2009 33.7373 31.1064 33.4448C31.2009 33.1458 31.4714 32.9349 31.7988 32.9349H37.6392C37.9679 32.9349 38.2448 33.1458 38.3315 33.4448Z" fill="#CF8327"/>
<path d="M41.4299 36.536C41.3354 36.8272 41.0585 37.0394 40.7375 37.0394H31.799C31.4781 37.0394 31.2012 36.8285 31.1067 36.536C31.2012 36.2371 31.4716 36.0261 31.799 36.0261H40.7375C41.0649 36.0248 41.3354 36.2371 41.4299 36.536Z" fill="#CF8327"/>
<path d="M42.6408 8.27224V15.4158H40.3411V8.27224C40.3411 5.37212 38.158 3 35.4895 3H37.7891C40.4576 3 42.6408 5.37212 42.6408 8.27224Z" fill="#282828"/>
<path d="M42.6408 40.8817V63.7281C42.6408 66.6295 40.4576 69.0003 37.7891 69.0003H35.4895C38.158 69.0003 40.3411 66.6282 40.3411 63.7281V40.8817H42.6408Z" fill="#282828"/>
<path d="M39.8477 15.4171V9.82518H6.28214V62.1761H39.8477V40.8814H40.3407V63.7278C40.3407 66.6292 38.1575 69 35.4891 69H8.34237C5.6739 69 3.49072 66.6279 3.49072 63.7278V8.27224C3.48943 5.37212 5.67261 3 8.34237 3H35.4891C38.1575 3 40.3407 5.37212 40.3407 8.27224V15.4158H39.8477V15.4171Z" fill="#3B3B3B"/>
<path d="M16.8916 16.0553C13.523 16.0553 10.7898 18.7885 10.7898 22.1571C10.7898 25.5257 16.8916 34.1872 16.8916 34.1872C16.8916 34.1872 22.9972 25.5257 22.9972 22.1571C22.9972 18.7885 20.264 16.0553 16.8916 16.0553ZM16.8916 25.8181C12.2832 25.6745 12.2845 18.9878 16.8916 18.8441C21.5051 18.9878 21.5038 25.6771 16.8916 25.8181Z" fill="#EC3969"/>
<path d="M62.4033 43.6155C59.0347 43.6155 56.3015 46.3487 56.3015 49.7173C56.3015 53.0859 62.4033 61.7474 62.4033 61.7474C62.4033 61.7474 68.5089 53.0859 68.5089 49.7173C68.5089 46.3487 65.7745 43.6155 62.4033 43.6155ZM62.4033 53.3784C57.7949 53.2347 57.7962 46.548 62.4033 46.4044C67.0168 46.5467 67.0155 53.236 62.4033 53.3784Z" fill="#EC3969"/>
<path d="M17.0716 42.1664C16.6705 42.1664 16.3469 41.8416 16.3469 41.4417V39.991C16.3469 39.5898 16.6717 39.2663 17.0716 39.2663C17.4728 39.2663 17.7963 39.5911 17.7963 39.991V41.4417C17.7976 41.8416 17.4728 42.1664 17.0716 42.1664Z" fill="#02B252"/>
<path d="M17.0716 47.9685C16.6705 47.9685 16.3469 47.6437 16.3469 47.2438V44.3424C16.3469 43.9412 16.6717 43.6177 17.0716 43.6177C17.4728 43.6177 17.7963 43.9425 17.7963 44.3424V47.2438C17.7976 47.645 17.4728 47.9685 17.0716 47.9685Z" fill="#02B252"/>
<path d="M18.5223 52.32H17.0716C16.6705 52.32 16.3469 51.9952 16.3469 51.5953V50.1446C16.3508 49.196 17.7937 49.196 17.7976 50.1446V50.8693H18.5223C19.4709 50.8732 19.4709 52.3161 18.5223 52.32Z" fill="#02B252"/>
<path d="M43.8266 52.3195H40.6638C39.7165 52.3157 39.7152 50.8727 40.6638 50.8688H43.8266C44.7739 50.8727 44.7752 52.3157 43.8266 52.3195ZM37.4997 52.3195H34.3369C33.3896 52.3157 33.3883 50.8727 34.3369 50.8688H37.4997C38.4483 50.8727 38.4496 52.3157 37.4997 52.3195ZM31.174 52.3195H28.0112C27.0639 52.3157 27.0626 50.8727 28.0112 50.8688H31.174C32.1213 50.8727 32.1239 52.3157 31.174 52.3195ZM24.8484 52.3195H21.6856C20.7383 52.3157 20.737 50.8727 21.6856 50.8688H24.8484C25.7957 50.8727 25.797 52.3157 24.8484 52.3195Z" fill="#02B252"/>
<path d="M48.4411 53.7698C48.04 53.7698 47.7164 53.445 47.7164 53.0451V52.3204H46.9917C46.0444 52.3165 46.0431 50.8735 46.9917 50.8697H48.4424C48.8436 50.8697 49.1671 51.1945 49.1671 51.5944V53.0451C49.1671 53.445 48.8423 53.7698 48.4411 53.7698Z" fill="#02B252"/>
<path d="M48.4403 63.0527C48.0391 63.0527 47.7156 62.7279 47.7156 62.328V60.0077C47.7156 59.6065 48.0404 59.283 48.4403 59.283C48.8402 59.283 49.165 59.6078 49.165 60.0077V62.328C49.1663 62.7292 48.8415 63.0527 48.4403 63.0527ZM48.4403 58.412C48.0391 58.412 47.7156 58.0872 47.7156 57.6873V55.3657C47.7156 54.9645 48.0404 54.641 48.4403 54.641C48.8402 54.641 49.165 54.9658 49.165 55.3657V57.6873C49.1663 58.0872 48.8415 58.412 48.4403 58.412Z" fill="#02B252"/>
<path d="M49.891 66.8257H48.4403C48.0391 66.8257 47.7156 66.5009 47.7156 66.101V64.6503C47.7195 63.7017 49.1624 63.7017 49.1663 64.6503V65.375H49.891C50.8396 65.3789 50.8396 66.8218 49.891 66.8257Z" fill="#02B252"/>
<path d="M56.1776 66.8253H53.0342C52.0869 66.8214 52.0856 65.3785 53.0342 65.3746H56.1776C57.1249 65.3785 57.1262 66.8214 56.1776 66.8253Z" fill="#02B252"/>
<path d="M60.7694 66.8248H59.3187C58.9175 66.8248 58.594 66.5 58.594 66.1001C58.594 65.6989 58.9188 65.3754 59.3187 65.3754H60.7694C61.718 65.378 61.718 66.8209 60.7694 66.8248Z" fill="#02B252"/>
<path d="M18.8878 38.176C18.827 40.5675 15.3212 40.5675 15.2617 38.176C15.3212 35.7845 18.827 35.7858 18.8878 38.176Z" fill="#02B252"/>
<path d="M64.3976 65.7371C64.3368 68.1287 60.831 68.1287 60.7715 65.7371C60.8323 63.3456 64.3381 63.3469 64.3976 65.7371Z" fill="#02B252"/>
</svg>
