<svg width="73" height="72" viewBox="0 0 73 72" fill="none" xmlns="http://www.w3.org/2000/svg">
<g clip-path="url(#clip0_11029_32738)">
<path d="M39.6631 33.2808H23.6072V29.1053H39.6631C40.775 29.1053 41.6764 30.0068 41.6764 31.1187V31.2674C41.6764 32.3793 40.775 33.2808 39.6631 33.2808Z" fill="#FFBE82"/>
<path d="M39.6631 33.2808H23.6072V29.1053H39.6631C40.775 29.1053 41.6764 30.0068 41.6764 31.1187V31.2674C41.6764 32.3793 40.775 33.2808 39.6631 33.2808Z" fill="#FFBE82"/>
<path d="M32.2826 26.1401L20.9294 37.4933L17.9768 34.5408L29.33 23.1875C30.1162 22.4013 31.3912 22.4013 32.1774 23.1875L32.2826 23.2928C33.0689 24.079 33.0689 25.3537 32.2826 26.1401Z" fill="#FF965A"/>
<path d="M43.5427 37.4274H27.4868V33.252H43.5427C44.6546 33.252 45.5561 34.1534 45.5561 35.2653V35.4141C45.5561 36.526 44.6546 37.4274 43.5427 37.4274Z" fill="#FFBE82"/>
<path d="M40.6228 41.5741H24.5669V37.3987H40.6228C41.7347 37.3987 42.6361 38.3001 42.6361 39.412V39.5608C42.6361 40.6728 41.7347 41.5741 40.6228 41.5741Z" fill="#FFBE82"/>
<path d="M39.1223 45.1186C39.5055 44.7401 39.7435 44.2148 39.7435 43.6335C39.7435 42.4805 38.8088 41.5457 37.6557 41.5457H24.1138V45.1185H39.1223V45.1186Z" fill="#FFBE82"/>
<path d="M34.4236 44.7958V29.1053H24.4831C23.9738 29.1053 23.476 29.1536 22.9919 29.2413V44.7958H34.4236Z" fill="#FF965A"/>
<path d="M30.111 44.5013C26.3237 44.4967 23.2559 41.4253 23.2559 37.6381V29.1988C21.5183 29.4563 19.9566 30.2503 18.7445 31.4091H16.6812V43.3889H18.7143C20.1262 44.7523 22.0187 45.6202 24.1137 45.7119V45.7212H37.6558C38.4987 45.7212 39.2231 45.2206 39.5528 44.5014H30.111V44.5013Z" fill="#FF965A"/>
<path d="M35.9443 43.6322C35.9443 44.3717 36.5438 44.9712 37.2834 44.9712H39.2571C39.5606 44.6088 39.7438 44.1421 39.7438 43.6322C39.7438 43.1224 39.5606 42.6557 39.2571 42.2931H37.2834C36.5438 42.2931 35.9443 42.8926 35.9443 43.6322Z" fill="#FFCEA1"/>
<path d="M42.4168 40.4131V40.2261H31.728C30.9836 40.2261 30.3804 40.8295 30.3804 41.5737H40.5484C41.3679 41.5737 42.0752 41.1003 42.4168 40.4131Z" fill="#FF965A"/>
<path d="M45.4185 36.0803H31.728C30.9836 36.0803 30.3804 36.6837 30.3804 37.428H43.4684C44.3603 37.428 45.1197 36.8675 45.4185 36.0803Z" fill="#FF965A"/>
<path d="M30.3801 33.23H40.0416C40.7498 33.0732 41.3212 32.5569 41.5575 31.8823H31.7279C30.9835 31.8823 30.3801 32.4856 30.3801 33.23Z" fill="#FF965A"/>
<path d="M37.9124 31.1926C37.9124 31.932 38.5118 32.5316 39.2514 32.5316H41.1898C41.4933 32.1692 41.6765 31.7023 41.6765 31.1926C41.6765 30.6828 41.4933 30.2161 41.1898 29.8535H39.2514C38.5118 29.8537 37.9124 30.4531 37.9124 31.1926Z" fill="#FFCEA1"/>
<path d="M41.6765 35.3395C41.6765 36.0791 42.276 36.6786 43.0156 36.6786H45.0693C45.3729 36.316 45.5561 35.8493 45.5561 35.3395C45.5561 34.8297 45.3729 34.363 45.0693 34.0005H43.0156C42.276 34.0006 41.6765 34.6001 41.6765 35.3395Z" fill="#FFCEA1"/>
<path d="M40.0388 38.1475C39.2993 38.1475 38.6997 38.7469 38.6997 39.4865C38.6997 40.226 39.2992 40.8256 40.0388 40.8256H42.149C42.4526 40.4631 42.6358 39.9963 42.6358 39.4865C42.6358 38.9767 42.4526 38.51 42.149 38.1475H40.0388Z" fill="#FFCEA1"/>
<path d="M11.1628 31.4092H16.8479V43.389H11.1628V31.4092Z" fill="#FF965A"/>
<path d="M14.5027 29.1053L-1.33322 28.4998C-1.77872 30.7288 -0.33252 34.1398 -0.33252 36.4998C-0.33252 39.6895 -1.13253 43.5637 -0.332772 46.4998L14.5028 45.2139L14.5027 29.1053Z" fill="#D92D20"/>
<path d="M72.6667 54.4069V23.4835C72.6667 21.921 71.3999 20.6543 69.8374 20.6543H58.1426L50.418 22.4833L41.6124 20.6543H33.4736V54.4069H72.6667Z" fill="#FBC56D"/>
<path d="M56.7327 20.6453V26.3236C56.7327 26.95 56.4944 27.4221 56.1356 27.7421C55.816 28.0862 55.3528 28.3135 54.7428 28.3135H42.6929C42.7361 28.52 42.8357 28.7123 42.9836 28.8671L43.7781 29.6987C44.2268 30.1685 44.977 30.1685 45.4258 29.6987L45.7121 29.399C46.1608 28.9292 46.911 28.9292 47.3598 29.399L47.6462 29.6987C48.095 30.1685 48.8452 30.1684 49.2939 29.6986L49.5801 29.399C50.0288 28.9292 50.779 28.9291 51.2278 29.3989L51.5145 29.6989C51.9632 30.1685 52.7133 30.1685 53.162 29.6989L53.449 29.3986C53.8978 28.9289 54.6477 28.9289 55.0966 29.3986L55.3839 29.6992C55.8326 30.1687 56.5825 30.1687 57.0313 29.6992L57.8267 28.8671C58.0294 28.655 58.1424 28.3731 58.1424 28.0799V20.6455L56.7327 20.6453Z" fill="#DAB72B"/>
<path d="M56.7887 28.8557C56.9799 28.6461 57.0868 28.373 57.0868 28.0887V20.6543H45.0879V28.8557H56.7887Z" fill="#9BD069"/>
<path d="M56.3081 28.0127L56.0211 28.313C55.5723 28.7827 54.8223 28.7827 54.3734 28.3129L54.0868 28.013C53.6379 27.5432 52.8879 27.5434 52.439 28.0132L52.1528 28.3128C51.704 28.7826 50.9539 28.7826 50.5051 28.3129L50.2187 28.0132C49.7699 27.5435 49.0197 27.5435 48.571 28.0132L48.2847 28.3129C47.8359 28.7827 47.0857 28.7827 46.637 28.3129L46.4168 28.0824C45.8456 27.4845 45.5269 26.6895 45.5269 25.8626V20.6545H41.6123V28.089C41.6123 28.3823 41.7253 28.6642 41.9279 28.8761L42.7224 29.7077C43.1711 30.1775 43.9213 30.1775 44.3701 29.7077L44.6564 29.408C45.1051 28.9382 45.8553 28.9382 46.3041 29.4079L46.5905 29.7077C47.0394 30.1774 47.7894 30.1774 48.2382 29.7076L48.5244 29.408C48.9731 28.9382 49.7233 28.9382 50.172 29.4079L50.4586 29.7079C50.9074 30.1775 51.6573 30.1775 52.1062 29.7079L52.3932 29.4074C52.8419 28.9378 53.5918 28.9378 54.0407 29.4074L54.328 29.708C54.7768 30.1775 55.5267 30.1775 55.9754 29.708L56.7708 28.8759C56.9735 28.6639 57.0865 28.382 57.0865 28.0887V27.6627C56.8023 27.6739 56.5212 27.7897 56.3081 28.0127Z" fill="#69B76B"/>
<path d="M69.2786 50.4583H51.9447C51.939 51.3485 51.5832 52.201 50.9531 52.8307C50.3179 53.4655 49.4564 53.8217 48.5585 53.821C45.4291 53.8186 42.2175 53.8168 39.2542 53.8152C39.0016 53.8151 38.7627 53.6836 38.6437 53.4607C38.64 53.4539 38.6365 53.4471 38.6328 53.4405C38.3744 52.9689 38.6977 52.3944 39.2356 52.3849C40.2367 52.3676 40.7759 52.2364 41.2895 51.6229C41.9529 50.7679 41.9286 49.7683 41.2895 48.9449C41.2864 48.9411 41.2831 48.9375 41.28 48.9337C41.0447 48.6565 41.2338 48.2332 41.5973 48.2359C42.9297 48.2456 43.4475 48.2035 44.0262 47.6668C44.1871 47.5169 44.3156 47.3531 44.4166 47.1809C44.6463 46.8773 44.729 46.3632 44.7083 45.8976C44.6933 45.5641 44.5316 45.2801 44.2547 44.8597C43.8896 44.3795 43.3167 44.0495 42.6085 44.0495H42.51C41.49 44.0495 40.7287 43.1653 40.8109 42.1487C40.8495 41.6724 40.724 41.1742 40.3972 40.7393C39.991 40.1986 39.3751 39.9028 38.7288 39.9028C36.1614 39.9028 34.0801 37.8215 34.0801 35.2542V20.6543H28.2983C27.0467 20.6543 26.0322 21.6689 26.0322 22.9204V55.8251C26.0322 57.0767 27.0468 58.0912 28.2983 58.0912H70.4002C71.6518 58.0912 72.6663 57.0766 72.6663 55.8251V53.8393H72.6602C70.7939 53.8366 69.2819 52.3242 69.2786 50.4583Z" fill="#EBAE56"/>
<path d="M69.2784 50.877V43.294C69.2784 42.424 68.5731 41.7188 67.7032 41.7188H56.7639V50.877H69.2784Z" fill="#9BD069"/>
<path d="M58.3383 50.6176C57.6415 50.6176 57.0765 50.0527 57.0765 49.3558C57.0765 48.6272 57.6672 48.0365 58.3958 48.0365H63.8919C64.1983 48.0365 64.4719 47.8126 64.501 47.5075C64.5343 47.1577 64.2602 46.8633 63.9172 46.8633H57.6901C57.3512 46.8633 57.0766 46.5886 57.0766 46.2498C57.0766 45.911 57.3514 45.6364 57.6901 45.6364H60.5867C60.8931 45.6364 61.1667 45.4124 61.1958 45.1074C61.2291 44.7575 60.9549 44.4632 60.612 44.4632H57.6901C57.3512 44.4632 57.0766 44.1884 57.0766 43.8497V41.7187H53.2071C52.5103 41.7187 51.9453 42.2835 51.9453 42.9805V51.5925C51.9453 52.2893 52.5102 52.8543 53.2071 52.8543H68.0169C68.7136 52.8543 69.2786 52.2894 69.2786 51.5925V50.6176H58.3383Z" fill="#69B76B"/>
<path d="M36.4485 44.0795H20.3926V39.904H36.4485C37.5604 39.904 38.4618 40.8055 38.4618 41.9174V42.0662C38.4618 43.1781 37.5604 44.0795 36.4485 44.0795Z" fill="#FFBE82"/>
<path d="M36.4485 44.0795H20.3926V39.904H36.4485C37.5604 39.904 38.4618 40.8055 38.4618 41.9174V42.0662C38.4618 43.1781 37.5604 44.0795 36.4485 44.0795Z" fill="#FFBE82"/>
<path d="M29.0677 36.9396L17.7145 48.2929L14.762 45.3403L26.1152 33.9871C26.9014 33.2009 28.1763 33.2009 28.9625 33.9871L29.0677 34.0923C29.8539 34.8787 29.8539 36.1534 29.0677 36.9396Z" fill="#FFBE82"/>
<path d="M40.3278 48.2267H24.272V44.0512H40.3278C41.4398 44.0512 42.3412 44.9526 42.3412 46.0646V46.2133C42.3412 47.3252 41.4399 48.2267 40.3278 48.2267Z" fill="#FFBE82"/>
<path d="M37.4079 52.3735H21.3521V48.198H37.4079C38.5198 48.198 39.4213 49.0994 39.4213 50.2114V50.3601C39.4213 51.472 38.52 52.3735 37.4079 52.3735Z" fill="#FFBE82"/>
<path d="M35.9079 55.9168C36.2911 55.5382 36.5291 55.0129 36.5291 54.4317C36.5291 53.2786 35.5945 52.3438 34.4413 52.3438H20.8994V55.9166H35.9079V55.9168Z" fill="#FFBE82"/>
<path d="M31.2087 55.5946V39.904H21.2683C20.7589 39.904 20.2612 39.9524 19.7771 40.0401V55.5945L31.2087 55.5946Z" fill="#FFBE82"/>
<path d="M26.8966 55.2988C23.1092 55.2943 20.0414 52.2228 20.0414 48.4356V39.9963C18.3038 40.2538 16.7421 41.0478 15.53 42.2066H13.4668V54.1864H15.4999C16.9119 55.5498 18.8043 56.4178 20.8994 56.5094V56.5188H34.4414C35.2844 56.5188 36.0087 56.0182 36.3384 55.2989H26.8966V55.2988Z" fill="#FF965A"/>
<path d="M32.7297 54.4311C32.7297 55.1707 33.3292 55.7701 34.0688 55.7701H36.0425C36.346 55.4077 36.5292 54.941 36.5292 54.4311C36.5292 53.9213 36.346 53.4546 36.0425 53.092H34.0688C33.3292 53.0922 32.7297 53.6916 32.7297 54.4311Z" fill="#FFCEA1"/>
<path d="M39.2022 51.2118V51.0248H28.5134C27.769 51.0248 27.1658 51.6282 27.1658 52.3725H37.3336C38.1532 52.3726 38.8606 51.8991 39.2022 51.2118Z" fill="#FF965A"/>
<path d="M42.2039 46.8785H28.5134C27.769 46.8785 27.1658 47.4819 27.1658 48.2261H40.2538C41.1457 48.2263 41.9049 47.6658 42.2039 46.8785Z" fill="#FF965A"/>
<path d="M27.1655 44.0291H36.827C37.5352 43.8723 38.1066 43.356 38.3429 42.6814H28.5133C27.7689 42.6812 27.1655 43.2847 27.1655 44.0291Z" fill="#FF965A"/>
<path d="M34.6978 41.9913C34.6978 42.7308 35.2972 43.3304 36.0368 43.3304H37.9752C38.2787 42.9679 38.4619 42.5011 38.4619 41.9913C38.4619 41.4816 38.2787 41.0149 37.9752 40.6523H36.0368C35.2972 40.6523 34.6978 41.2519 34.6978 41.9913Z" fill="#FFCEA1"/>
<path d="M38.4619 46.1384C38.4619 46.878 39.0614 47.4774 39.801 47.4774H41.8547C42.1583 47.1148 42.3415 46.6481 42.3415 46.1384C42.3415 45.6286 42.1583 45.1619 41.8547 44.7993H39.801C39.0614 44.7993 38.4619 45.3989 38.4619 46.1384Z" fill="#FFCEA1"/>
<path d="M36.8242 48.9451C36.0847 48.9451 35.4851 49.5445 35.4851 50.2841C35.4851 51.0236 36.0846 51.6232 36.8242 51.6232H38.9344C39.238 51.2607 39.4212 50.7939 39.4212 50.2841C39.4212 49.7743 39.238 49.3076 38.9344 48.9451H36.8242Z" fill="#FFCEA1"/>
<path d="M7.94824 42.2069H13.6333V54.1867H7.94824V42.2069Z" fill="#FF965A"/>
<path d="M-0.833262 56.0126H11.288C11.288 54.344 11.288 42.4588 11.288 39.904H-0.832551C-0.172207 45.8508 -4.09303 51.3474 -0.833262 56.0126Z" fill="#F04438"/>
</g>
<defs>
<clipPath id="clip0_11029_32738">
<rect width="72" height="72" fill="white" transform="translate(0.666504)"/>
</clipPath>
</defs>
</svg>
