<svg width="73" height="72" viewBox="0 0 73 72" fill="none" xmlns="http://www.w3.org/2000/svg">
<g clip-path="url(#clip0_11029_32914)">
<path d="M34.0969 28.8641C37.0266 25.2952 38.0462 21.4127 36.3279 19.6939C34.9399 18.3064 32.14 18.7055 29.2339 20.453C29.0093 15.344 26.8659 11.3364 24.2531 11.3364C21.6402 11.3364 19.4963 15.344 19.2717 20.4535C16.3661 18.7055 13.5657 18.3064 12.1777 19.6944C10.4594 21.4127 11.479 25.2952 14.4087 28.8641C13.4979 28.8808 12.7274 29.1507 12.1777 29.6998C10.2245 31.653 11.8078 36.4036 15.7143 40.3101C18.5871 43.1829 21.9153 44.797 24.2531 44.6745C26.5903 44.797 29.9185 43.1829 32.7913 40.3101C36.6978 36.4036 38.2811 31.653 36.3279 29.6998C35.7787 29.1501 35.0082 28.8808 34.0969 28.8641ZM24.0879 34.6733C24.1431 34.6723 24.1984 34.6717 24.2531 34.6686C24.3072 34.6712 24.3625 34.6723 24.4177 34.6733C24.363 34.7405 24.3062 34.8072 24.2531 34.8739C24.1994 34.8072 24.1431 34.7405 24.0879 34.6733Z" fill="#00824D"/>
<path d="M55.0553 40.1785C55.6873 40.8345 56.0416 41.5701 56.0416 42.3469C56.0416 45.1093 51.563 47.3486 46.0383 47.3486C42.9769 47.3486 40.2384 46.6603 38.4045 45.5772C37.9616 46.5046 37.4302 47.2621 36.8373 47.7961C35.2712 49.5352 31.7768 50.7471 27.714 50.7471C22.1892 50.7471 17.7107 48.5078 17.7107 45.7455C17.7107 44.9686 18.0644 44.233 18.6969 43.577C14.1017 43.1253 11.1226 41.1007 11.1226 38.6707C11.1226 36.7076 12.8976 35.0101 16.1883 34.1911C12.7346 30.4195 17.6445 27.1179 19.492 25.2704C21.3395 23.423 19.4613 23.6928 23.2328 27.1471C24.0518 23.8559 25.7493 21.5937 27.7119 21.5937C30.1424 21.5937 32.1665 25.0605 32.6187 29.6552C33.2747 29.0233 34.0103 28.669 34.7872 28.669C34.9247 28.669 35.0602 28.683 35.1946 28.7049C36.1116 26.6011 37.4599 25.2704 38.9651 25.2704C39.7419 25.2704 40.4776 25.6247 41.1335 26.2567C41.5858 21.662 43.6099 18.1952 46.0404 18.1952C48.003 18.1952 49.7004 20.4574 50.5194 23.7486C54.291 20.2943 58.6409 18.9762 60.4884 20.8242C62.3359 22.6717 61.0177 27.021 57.564 30.7926C60.8546 31.6116 63.1168 33.309 63.1168 35.2722C63.1168 37.7022 59.6501 39.7263 55.0553 40.1785Z" fill="#00824D"/>
<path d="M43.6666 50.0159C38.8786 50.0159 34.9971 46.1344 34.9971 41.3464V10.6695C34.9971 5.88149 38.8786 2 43.6666 2C48.4546 2 52.3361 5.88149 52.3361 10.6695V41.3464C52.3361 46.1344 48.4546 50.0159 43.6666 50.0159Z" fill="#F7C32A"/>
<path d="M52.3361 10.6695V41.3464C52.3361 46.1344 48.4546 50.0159 43.6666 50.0159C42.685 50.0159 41.743 49.8507 40.863 49.5501C39.6158 48.048 38.865 46.1188 38.865 44.0139V34.6775C38.865 33.5724 39.7606 32.6768 40.8657 32.6768H47.6679C48.4338 32.6768 49.0491 32.0313 48.9991 31.2545C48.9527 30.5454 48.3327 30.0093 47.6221 30.0093H40.8657C39.7606 30.0093 38.865 29.1137 38.865 28.0086C38.865 26.9036 39.7606 26.0079 40.8657 26.0079H47.6679C48.4338 26.0079 49.0491 25.3624 48.9986 24.5856C48.9527 23.8765 48.3327 23.3404 47.6221 23.3404H40.8657C39.7606 23.3404 38.865 22.4448 38.865 21.3397C38.865 20.2347 39.7606 19.3391 40.8657 19.3391H47.6679C48.4338 19.3391 49.0491 18.6935 48.9986 17.9167C48.9527 17.2076 48.3327 16.6715 47.6221 16.6715H40.8657C39.7606 16.6715 38.865 15.7759 38.865 14.6709C38.865 13.5658 39.7606 12.6702 40.8657 12.6702H47.6679C48.4338 12.6702 49.0491 12.0247 48.9986 11.2479C48.9527 10.5388 48.3327 10.0026 47.6221 10.0026H40.8657C39.7606 10.0026 38.865 9.10704 38.865 8.00199C38.865 5.89712 39.6158 3.96784 40.863 2.46578C41.743 2.16516 42.685 2 43.6666 2C48.4546 2 52.3361 5.88149 52.3361 10.6695Z" fill="#F7D674"/>
<path d="M40.6938 31.9375C40.0811 32.2943 39.7127 32.9576 39.7127 33.6662C39.7127 34.3747 40.0811 35.0385 40.6938 35.3948C41.2752 35.733 41.666 36.3629 41.666 37.084V64.2023C41.666 65.2813 40.7917 66.1555 39.7127 66.1555H23.1124C22.0334 66.1555 21.1592 65.2813 21.1592 64.2023V37.084C21.1592 36.3629 21.5499 35.733 22.1314 35.3948C22.7436 35.0385 23.1124 34.3747 23.1124 33.6662C23.1124 32.9576 22.7441 32.2943 22.1314 31.9375C21.5499 31.5993 21.1592 30.9694 21.1592 30.2484V26.3424C21.1592 23.3878 23.3458 20.9442 26.189 20.5415C26.6667 20.4738 27.0184 20.059 27.0184 19.5766V15.6008H35.8067V19.5766C35.8067 20.059 36.1584 20.4738 36.6362 20.5415C39.4793 20.9442 41.666 23.3878 41.666 26.3424V30.2484C41.666 30.9694 41.2752 31.5993 40.6938 31.9375Z" fill="#E1EFF4"/>
<path d="M41.6668 26.3404V30.2464C41.6668 30.9675 41.2761 31.5974 40.6946 31.9355C40.0819 32.2924 39.7136 32.9556 39.7136 33.6642C39.7136 34.3727 40.0819 35.0365 40.6946 35.3929C41.2761 35.731 41.6668 36.3609 41.6668 37.082V64.6005C41.6668 65.6795 40.7926 66.5537 39.7136 66.5537H24.2553C24.0886 66.2661 23.9917 65.9332 23.9917 65.5773V38.0583C23.9917 37.3373 24.3825 36.7074 24.9639 36.3692C25.5766 36.0129 25.9449 35.3496 25.9449 34.6405C25.9449 33.932 25.5766 33.2687 24.9639 32.9124C24.3825 32.5737 23.9917 31.9438 23.9917 31.2227V27.3168C23.9917 24.3627 26.1784 21.9186 29.022 21.5159C29.4993 21.4482 29.8509 21.0334 29.8509 20.551V16.5752H35.8076V19.5746C35.8076 20.0571 36.1593 20.4718 36.637 20.5395C39.4802 20.9423 41.6668 23.3858 41.6668 26.3404Z" fill="#FFF5F5"/>
<path d="M38.6778 27.9049C38.8513 27.9049 38.9972 28.0435 38.9972 28.217V28.2206V31.6634C38.9972 32.299 38.5924 32.8539 37.9906 33.1524C37.356 33.4666 36.9746 34.0512 36.9746 34.6759C36.9746 35.3011 37.356 35.8856 37.9906 36.1998C38.5924 36.4978 38.9972 37.0532 38.9972 37.6888V62.6507C38.9972 63.6016 38.0917 64.3722 36.9746 64.3722H25.8512C24.7341 64.3722 23.8286 63.6016 23.8286 62.6507V37.6888C23.8286 37.0532 24.2334 36.4978 24.8352 36.1998C25.4698 35.8856 25.8512 35.3011 25.8512 34.6759C25.8512 34.0512 25.4698 33.4666 24.8352 33.1524C24.2334 32.8539 23.8286 32.299 23.8286 31.6634V28.2206C23.8286 28.219 23.8286 28.218 23.8286 28.217C23.8286 28.0435 23.9745 27.9049 24.148 27.9049H38.6778Z" fill="#16BADB"/>
<path d="M36.7843 14.004V17.1957C36.7843 17.9318 36.1867 18.5294 35.4506 18.5294H27.376C26.6393 18.5294 26.0422 17.9318 26.0422 17.1957V14.004C26.0422 13.2673 26.6393 12.6702 27.376 12.6702H35.4506C36.1867 12.6702 36.7843 13.2673 36.7843 14.004Z" fill="#F45751"/>
<path d="M29.1169 12.6759V18.5237C28.4334 18.4659 27.8967 17.8938 27.8967 17.1957V14.004C27.8967 13.3053 28.4334 12.7332 29.1169 12.6759ZM30.582 18.5294H31.9246V12.6702H30.582V18.5294ZM36.1969 12.8994V18.3002C36.5506 18.06 36.783 17.6552 36.783 17.1957V14.004C36.783 13.5444 36.5506 13.1396 36.1969 12.8994ZM33.3892 18.5294H34.7323V12.6702H33.3892V18.5294Z" fill="#F56D59"/>
<path d="M63.3065 70.7354C57.0493 78.5567 43.7579 73.9996 32.9627 73.9996C22.1674 73.9996 16.2123 65.2782 9.95557 57.4569V36.7589C9.95557 35.9779 10.5891 35.3444 11.3701 35.3444C11.7452 35.3444 12.1052 35.4934 12.3704 35.7586L14.2466 37.6347C14.455 37.8431 14.7926 37.8431 15.001 37.6347L16.5838 36.0519C17.0371 35.5986 17.6513 35.3444 18.2917 35.3444C18.932 35.3444 19.5462 35.5991 19.999 36.0519L21.5823 37.6347C21.7907 37.8431 22.1283 37.8431 22.3367 37.6347L23.9196 36.0519C24.3723 35.5986 24.9866 35.3444 25.6274 35.3444C26.2677 35.3444 26.882 35.5991 27.3348 36.0519L28.9176 37.6347C29.126 37.8431 29.4641 37.8431 29.6725 37.6347L31.2553 36.0519C31.7081 35.5986 32.3223 35.3444 32.9627 35.3444C33.6035 35.3444 34.2178 35.5991 34.6705 36.0519L36.2533 37.6347C36.4617 37.8431 36.7999 37.8431 37.0077 37.6347L38.5911 36.0519C39.0438 35.5986 39.6581 35.3444 40.2984 35.3444C40.9387 35.3444 41.5535 35.5991 42.0063 36.0519L43.5891 37.6347C43.7975 37.8431 44.1351 37.8431 44.3435 37.6347L45.9263 36.0519C46.3796 35.5986 46.9939 35.3444 47.6342 35.3444C48.2745 35.3444 48.8888 35.5991 49.3415 36.0519L50.9249 37.6347C51.1333 37.8431 51.4709 37.8431 51.6793 37.6347L53.2621 36.0519C53.7148 35.5986 54.3291 35.3444 54.9699 35.3444C55.6103 35.3444 56.2245 35.5991 56.6773 36.0519L58.2601 37.6347C58.4685 37.8431 58.8066 37.8431 59.015 37.6347L60.8906 35.7586C61.1558 35.4934 61.5159 35.3444 61.891 35.3444C62.6725 35.3444 63.306 35.9779 63.306 36.7589L63.3065 70.7354Z" fill="#FBC56D"/>
<path d="M20.7111 63.4839C25.8462 67.3315 32.1003 71.7667 38.8984 72.2121C38.1487 72.2616 37.7632 72.4996 37.001 72.4996C26.2057 72.4996 14.9081 80.4818 8.65137 72.6604L9.9555 36.7589C9.9555 35.9779 10.589 35.3444 11.37 35.3444C11.7452 35.3444 12.1052 35.4934 12.3704 35.7586L14.2465 37.6347C14.3163 37.7045 14.4012 37.7488 14.4903 37.7717V50.9318C14.4903 55.8579 16.7692 60.5303 20.7111 63.4839Z" fill="#EBAE56"/>
</g>
<defs>
<clipPath id="clip0_11029_32914">
<rect width="72" height="72" fill="white" transform="translate(0.666504)"/>
</clipPath>
</defs>
</svg>
